<svg id="Layer_1" data-name="Layer 1" xmlns="http://www.w3.org/2000/svg" viewBox="0 0 1420 780"><defs><style>.cls-1{fill:#f2f2f2;}.cls-2{fill:#f6a7ba;}.cls-3{fill:#62afee;}.cls-4{fill:#fff;}.cls-5,.cls-6{fill:none;stroke-linecap:round;stroke-linejoin:round;stroke-width:3px;}.cls-5{stroke:#62afee;}.cls-6{stroke:#fff;}</style></defs><path class="cls-1" d="M556.84,101.56l-11.64,9.36v.44l11.68,9.36-2.52,3.2L541.2,113v-3.72L554.44,98.4Z"/><path class="cls-2" d="M565.88,107.36c.08,3.72.12,9,.12,15.6h-4.12c0-9,0-15.24-.16-19.76l3.8-.24.16,1.72a5.7,5.7,0,0,1,4.12-2.16,2.76,2.76,0,0,1,2.88,2.16,5.74,5.74,0,0,1,4.24-2.16c2.28,0,3.4,1.6,3.4,4.56V123H576.2V108.64c0-1.72-.48-2.32-1.52-2.32a2.74,2.74,0,0,0-2,.92V123h-3.16V108.6c0-1.68-.44-2.28-1.44-2.28A3.31,3.31,0,0,0,565.88,107.36Z"/><path class="cls-2" d="M584.48,126c4.72-.68,6-1.12,7.12-3.8l-.76-.28c-1.88-4.2-6-14.8-7.52-18.76l4.52-.32c1.64,4.4,3.76,10.4,5.6,14.8h.4c1.24-3.84,4-13.32,4.48-14.64h4.28c-1.44,4.52-3.4,10.52-5.6,16.44-2.88,8-5,9.92-12.16,10.56Z"/><path class="cls-2" d="M621.2,113H608.72v-3.8h12.8Z"/><path class="cls-2" d="M644.48,102.76l.28,4.2c-10-.32-11.48,2-11.48,5.8,0,5.12,2.8,7.2,11.76,6.68l-.44,3.68c-12.44,1-15.72-3.64-15.72-9.8C628.88,107.76,632.56,102.8,644.48,102.76Z"/><path class="cls-2" d="M649.92,113.48c0-6.48,4.44-11,9.72-11,5,0,8.44,3.64,8.44,10.12,0,6.64-4.4,11-9.72,11C653.44,123.56,649.92,119.92,649.92,113.48Zm13.68-.12c0-4.8-1.84-7.28-4.72-7.28-2.68,0-4.44,2.2-4.44,6.56,0,4.84,1.84,7.32,4.72,7.32C661.84,120,663.6,117.76,663.6,113.36Z"/><path class="cls-2" d="M684.88,120.8a9.42,9.42,0,0,1-6.36,2.68c-3.48,0-5.68-2-5.68-6.88V103.2l4.44-.28V115c0,3.52,1.28,4.64,3.32,4.64a6.89,6.89,0,0,0,4-1.36c-.08-3.68-.12-8.84-.12-15.28h4.44c0,9,.08,15.24.32,19.8l-4.12.2Z"/><path class="cls-2" d="M699.4,107.64c.08,3.72.16,8.92.16,15.32h-4.48c0-9-.08-15.24-.32-19.76l4.12-.24.24,2.28a9.37,9.37,0,0,1,6.4-2.72c3.48,0,5.72,2,5.72,6.88V123H706.8V111c0-3.52-1.32-4.64-3.36-4.64A7.26,7.26,0,0,0,699.4,107.64Z"/><path class="cls-2" d="M720.64,116.32v-9.88h-4.08l.4-3.4h3.68V97.68l4.4-.4V103h7.52v3.4H725v9.2c0,3.12,1.88,3.84,8,4l-.48,3.68C723.56,123.44,720.64,121.44,720.64,116.32Z"/><path class="cls-2" d="M738.28,113.36c0-6.12,4.48-10.84,9.72-10.84,5.6,0,8.28,4.4,7.56,11.32l-12.84.36c.48,4,3.48,5.32,12.28,5.52l-.44,3.72C741.68,123.56,738.28,119.84,738.28,113.36Zm4.4-1.8c2.12-.08,6.16-.2,8.64-.28-.12-3.16-1.36-5.12-4.12-5.12S742.88,107.84,742.68,111.56Z"/><path class="cls-2" d="M760.64,123V119.6h4.84c-.08-5.4-.12-9.56-.2-13.08l-4.72-.32.36-3.16h8.24c0,.2.28,2.44.36,3.44a13.09,13.09,0,0,1,8.4-4.2l.2,4.72a22.2,22.2,0,0,0-8.44,2c.08,3,.12,6.36.2,10.6h6l-.36,3.36Z"/><path class="cls-1" d="M783.2,120.8l11.72-9.44v-.44l-11.6-9.28,2.48-3.2,13.12,10.84V113L785.6,123.92Z"/><path class="cls-3" d="M121.88,175.68c-7.4-.64-9.68.24-9.68,1.64,0,2.68,10.68,3.84,10.68,8.84,0,3.44-3.68,6.52-15.16,6l.16-3.8c7.92.52,10.36-.4,10.36-2,0-2.84-10.64-3.56-10.64-8.56,0-3.44,3.68-6.72,14.12-6Z"/><path class="cls-3" d="M128.28,182.36c0-6.12,4.48-10.84,9.72-10.84,5.6,0,8.28,4.4,7.56,11.32l-12.84.36c.48,4,3.48,5.32,12.28,5.52l-.44,3.72C131.68,192.56,128.28,188.84,128.28,182.36Zm4.4-1.8c2.12-.08,6.16-.2,8.64-.28-.12-3.16-1.36-5.12-4.12-5.12S132.88,176.84,132.68,180.56Z"/><path class="cls-3" d="M154.64,185.32v-9.88h-4.08l.4-3.4h3.68v-5.36l4.4-.4V172h7.52v3.4H159v9.2c0,3.12,1.88,3.84,8,4l-.48,3.68C157.56,192.44,154.64,190.44,154.64,185.32Z"/><path class="cls-3" d="M189,192.12c-12.8,1-16.52-4.68-16.52-12.2,0-6.92,4.12-12.88,16.44-13.12l.24,4.4c-10.2-.2-11.92,2.72-11.92,8.12,0,6.52,2.68,9.36,12.16,8.88Z"/><path class="cls-3" d="M193.92,182.48c0-6.48,4.44-11,9.72-11,5,0,8.44,3.64,8.44,10.12,0,6.64-4.4,11-9.72,11C197.44,192.56,193.92,188.92,193.92,182.48Zm13.68-.12c0-4.8-1.84-7.28-4.72-7.28-2.68,0-4.44,2.2-4.44,6.56,0,4.84,1.84,7.32,4.72,7.32C205.84,189,207.6,186.76,207.6,182.36Z"/><path class="cls-3" d="M228.88,189.8a9.42,9.42,0,0,1-6.36,2.68c-3.48,0-5.68-2-5.68-6.88V172.2l4.44-.28V184c0,3.52,1.28,4.64,3.32,4.64a6.89,6.89,0,0,0,4-1.36c-.08-3.68-.12-8.84-.12-15.28h4.44c0,9,.08,15.24.32,19.8l-4.12.2Z"/><path class="cls-3" d="M243.4,176.64c.08,3.72.16,8.92.16,15.32h-4.48c0-9-.08-15.24-.32-19.76l4.12-.24.24,2.28a9.37,9.37,0,0,1,6.4-2.72c3.48,0,5.72,2,5.72,6.88V192H250.8V180c0-3.52-1.32-4.64-3.36-4.64A7.26,7.26,0,0,0,243.4,176.64Z"/><path class="cls-3" d="M264.64,185.32v-9.88h-4.08l.4-3.4h3.68v-5.36l4.4-.4V172h7.52v3.4H269v9.2c0,3.12,1.88,3.84,8,4l-.48,3.68C267.56,192.44,264.64,190.44,264.64,185.32Z"/><path class="cls-1" d="M299,165.44c-7.92,6.4-10.48,11.16-10.48,16s2.68,9.8,10.36,16l-3.08,2.76c-8.4-7.2-11.68-12.92-11.68-18.6,0-5.84,3.36-11.68,11.88-18.92Z"/><path class="cls-1" d="M305.36,188.44c8.8-.52,11.52-1.68,11.52-3.64,0-1.8-2.48-3.64-9.6-4.48v-2l8.84-7.32h-10.4v-3.84h14.56l.32,3.84-8.4,7c6.56,1.24,9,3.72,9,6.52,0,4.28-4.6,7.44-15.48,8Z"/><path class="cls-1" d="M327,197.56c7.92-6.36,10.48-11.16,10.48-16s-2.64-9.8-10.36-16l3.08-2.76c8.4,7.2,11.72,12.92,11.72,18.6S338.6,193,330.08,200.28Z"/><path class="cls-1" d="M354,186.32l5.8-.28c1.8,4.56-.6,9.64-4.08,12.8l-2.36-.72C355.6,195.24,356,190.52,354,186.32Zm.2-7.2.08-5.6h6.12l-.08,5.6Z"/><path class="cls-4" d="M1137.2,241v-3.72h6.72V222.36l-6.08.16-.08-3.24,6.16-.64v-2.92l4.28-.36v21.88h6l-.36,3.72Z"/><path class="cls-4" d="M1158.44,231.72c0-6.92,3.92-12.48,12.68-16.44L1173,219c-6.36,2.56-9,5.28-9.92,8.76,5.64-4,12.6-1.52,12.6,5.16a8.34,8.34,0,0,1-8.68,8.52C1161.88,241.44,1158.44,238.08,1158.44,231.72Zm13.08,1.64c0-4.44-4.16-5.84-8.88-2.92v.84c0,4.6,2,6.64,4.72,6.64C1169.76,237.92,1171.52,236.32,1171.52,233.36Z"/><path class="cls-2" d="M265.37,371.72a60.33,60.33,0,1,1-60.32,60.33,60.39,60.39,0,0,1,60.32-60.33m0-3a63.33,63.33,0,1,0,63.33,63.33,63.32,63.32,0,0,0-63.33-63.33Z"/><path class="cls-2" d="M272.69,440.29h-17c-1.3,5.26-2.5,10.62-3.79,15.89H241.38c4.9-19,9.88-38.24,15.61-57.36h14.69c5.63,19.12,10.71,38,15.6,57l-10.71.73C275.28,451.19,274,445.74,272.69,440.29Zm-15.15-7.76h13.3c-2-8.4-4.15-16.81-6.28-25h-.74C261.7,415.81,259.58,424.13,257.54,432.53Z"/><path class="cls-4" d="M367.77,386.9c0-2.22,2.55-3.45,2.55-4.68,0-1-1.32-1.74-4.06-2l.08-2.18c3.22-.34,4.18-.82,4.18-1.57,0-1.15-2.78-2.33-2.8-4.45s2.24-4.06,8.82-6.14l1,2.52c-4.68,1.29-6.81,2.27-6.81,3.39s2.58,2.63,2.58,4.2c0,1-.87,2.21-3.17,2.91,2.3.62,3.17,1.74,3.17,2.83,0,1.77-2.41,2.91-2.41,4.4s2.1,2.41,6.58,3.75l-1,2.49C369.9,390.31,367.77,389,367.77,386.9Z"/><path class="cls-3" d="M401.93,414l-1.65.05v6h-3.11V400.42l3.11-.28v11.7l1.65,0a53.29,53.29,0,0,0,3.89-5.8l3.2.25c-1.38,2.16-2.86,4.34-4.46,6.41l4.85,7.17-3.33.39Z"/><path class="cls-3" d="M411.7,413.33c0-4.29,3.14-7.59,6.81-7.59,3.92,0,5.79,3.08,5.29,7.92l-9,.26c.34,2.8,2.44,3.72,8.6,3.86l-.31,2.6C414.08,420.47,411.7,417.86,411.7,413.33Zm3.08-1.26c1.49-.06,4.31-.14,6.05-.2-.08-2.21-.95-3.58-2.88-3.58S414.92,409.46,414.78,412.07Z"/><path class="cls-3" d="M427.24,422.2c3.31-.47,4.17-.78,5-2.66l-.54-.19c-1.31-2.94-4.2-10.36-5.26-13.13l3.16-.23c1.15,3.08,2.64,7.28,3.92,10.36h.28c.87-2.69,2.78-9.32,3.14-10.25h3c-1,3.17-2.38,7.37-3.92,11.51-2,5.63-3.5,6.95-8.52,7.39Z"/><path class="cls-4" d="M446.34,420.05l.14-3.92h4.28l-.14,3.92Zm.25-9,.05-3.92h4.26l0,3.92Z"/><path class="cls-4" d="M481.64,409.49l-4,.23c-1.29-3.17.31-6.81,2.77-9l1.65.48A8.11,8.11,0,0,0,481.64,409.49Z"/><path class="cls-4" d="M500,405.91l.2,2.94c-7-.23-8,1.37-8,4.06,0,3.58,2,5,8.23,4.67l-.31,2.58c-8.7.73-11-2.55-11-6.86C489.12,409.41,491.7,405.94,500,405.91Z"/><path class="cls-4" d="M503.85,413.41c0-4.53,3.11-7.73,6.8-7.73,3.5,0,5.91,2.55,5.91,7.09s-3.08,7.7-6.81,7.7C506.31,420.47,503.85,417.92,503.85,413.41Zm9.57-.08c0-3.36-1.29-5.1-3.3-5.1s-3.11,1.54-3.11,4.59c0,3.39,1.29,5.13,3.3,5.13S513.42,416.41,513.42,413.33Z"/><path class="cls-4" d="M528.32,418.54a6.59,6.59,0,0,1-4.45,1.87c-2.44,0-4-1.4-4-4.81v-9.38L523,406v8.48c0,2.47.89,3.25,2.32,3.25a4.79,4.79,0,0,0,2.8-.95c0-2.58-.08-6.19-.08-10.7h3.11c0,6.28.05,10.67.22,13.86l-2.88.14Z"/><path class="cls-4" d="M538.48,409.32c.06,2.61.11,6.25.11,10.73h-3.13c0-6.27-.06-10.67-.23-13.83l2.89-.17.17,1.59a6.58,6.58,0,0,1,4.48-1.9c2.43,0,4,1.43,4,4.82v9.49h-3.11v-8.4c0-2.47-.92-3.25-2.35-3.25A5.1,5.1,0,0,0,538.48,409.32Z"/><path class="cls-4" d="M553.35,415.4v-6.92h-2.86l.28-2.38h2.58v-3.75l3.08-.28v4h5.26v2.38h-5.26v6.44c0,2.19,1.32,2.69,5.57,2.78l-.33,2.57C555.39,420.38,553.35,419,553.35,415.4Z"/><path class="cls-4" d="M569.92,401.32l4-.23c1.29,3.17-.31,6.81-2.74,9l-1.68-.51C571,407.59,571.32,404.28,569.92,401.32Z"/><path class="cls-4" d="M584.93,416.07l4-.19c1.26,3.13-.37,6.77-2.8,9l-1.66-.47A8.08,8.08,0,0,0,584.93,416.07Z"/><path class="cls-3" d="M405,452.33a5.46,5.46,0,0,1-3.84,1.68c-2.94,0-5.09-2.43-5.09-6.58a7.67,7.67,0,0,1,8-8.09,4.57,4.57,0,0,1,.64,0V434l3.11-.28v5.94c0,6.52.05,10.8.19,13.88l-2.88.17Zm-.17-1.73c0-2.16-.08-4.88-.08-8.24a6.77,6.77,0,0,0-2-.36c-2.13,0-3.61,1.57-3.61,4.65,0,3.3,1.37,4.81,3.3,4.81A3.75,3.75,0,0,0,404.84,450.6Z"/><path class="cls-3" d="M411.7,446.93c0-4.29,3.14-7.59,6.81-7.59,3.92,0,5.79,3.08,5.29,7.92l-9,.26c.34,2.8,2.44,3.72,8.6,3.86l-.31,2.6C414.08,454.07,411.7,451.46,411.7,446.93Zm3.08-1.26c1.49-.06,4.31-.14,6.05-.2-.08-2.21-.95-3.58-2.88-3.58S414.92,443.06,414.78,445.67Z"/><path class="cls-3" d="M438.41,453.65H427.63v-2.33h3.53v-8.65h-3.69l.28-2.38h3.41v0c0-3.58,2-6.27,8.54-6.6l.2,3c-5.1.17-5.63.62-5.63,3.11v.5H439v2.38h-4.7v8.65h4.42Z"/><path class="cls-3" d="M451.32,452.05a6.39,6.39,0,0,1-4.56,2c-2.49,0-4.2-1.37-4.2-3.64,0-2.8,2.63-5,8.51-4.79-.17-2.68-1.71-3.33-7.7-3.52l.31-2.64c8.4.14,10.5,1.88,10.5,7.31,0,2.72.11,4.93.25,6.86l-2.86.14C451.54,453.62,451.41,452.72,451.32,452.05Zm-.14-1.54c-.06-.81-.06-1.73-.08-2.88-4.31-.45-5.46.47-5.46,2,0,1.24.92,2,2.35,2A5.86,5.86,0,0,0,451.18,450.51Z"/><path class="cls-3" d="M466.72,452.14a6.59,6.59,0,0,1-4.45,1.87c-2.44,0-4-1.4-4-4.81v-9.38l3.11-.2v8.48c0,2.47.9,3.25,2.32,3.25a4.79,4.79,0,0,0,2.8-1c0-2.58-.08-6.19-.08-10.7h3.11c0,6.28.05,10.67.22,13.86l-2.88.14Z"/><path class="cls-3" d="M473.64,453.65V451.3H478V436.51l-4.17-.22.28-2.21h7V451.3h4.32l-.26,2.35Z"/><path class="cls-3" d="M491.75,449v-6.92H488.9l.28-2.38h2.57V436l3.08-.28v4h5.27v2.38h-5.27v6.44c0,2.19,1.32,2.69,5.57,2.78l-.33,2.57C493.79,454,491.75,452.58,491.75,449Z"/><path class="cls-4" d="M507.94,453.65l.13-3.92h4.29l-.14,3.92Zm.25-9,.05-3.92h4.26l-.06,3.92Z"/><path class="cls-4" d="M534.67,445.25c0-5.6,2.52-9.33,6.56-9.33s6.1,3.31,6.1,8.77-2.49,9.32-6.52,9.32S534.67,450.71,534.67,445.25Zm3,.28,6.44-3.33c-.45-2.36-1.46-3.76-3.11-3.76-2.27,0-3.36,2.27-3.36,6.25A7.58,7.58,0,0,0,537.67,445.53Zm6.69-.28v-.73l-6.44,3.33c.45,2.3,1.49,3.64,3.11,3.64C543.3,451.49,544.36,449.22,544.36,445.25Z"/><path class="cls-4" d="M365.76,490.64c4.67-1.29,6.77-2.27,6.77-3.36,0-1.29-2.55-2.64-2.55-4.23,0-1,.87-2.19,3.2-2.91-2.33-.62-3.2-1.71-3.2-2.8,0-1.77,2.41-2.92,2.41-4.4s-2.1-2.44-6.58-3.78l1-2.46c6.52,2.07,8.65,3.36,8.65,5.48s-2.55,3.45-2.55,4.71c0,.95,1.29,1.71,4.06,1.93L376.9,481c-3.19.31-4.14.81-4.14,1.57,0,1.15,2.77,2.3,2.77,4.42s-2.21,4.06-8.79,6.16Z"/><polyline class="cls-5" points="247.1 322.81 265.09 340.23 286.3 324"/><path class="cls-2" d="M797.46,371.86a61.33,61.33,0,1,1-61.33,61.32,61.4,61.4,0,0,1,61.33-61.32m0-2a63.33,63.33,0,1,0,63.33,63.32,63.33,63.33,0,0,0-63.33-63.32Z"/><path class="cls-4" d="M899.94,403.63c0-2.21,2.55-3.44,2.55-4.67,0-1-1.32-1.74-4.06-2l.08-2.19c3.22-.33,4.17-.81,4.17-1.56,0-1.15-2.77-2.33-2.8-4.46s2.24-4.06,8.82-6.13l1,2.52c-4.67,1.29-6.8,2.27-6.8,3.39s2.58,2.63,2.58,4.2c0,1-.87,2.21-3.17,2.91,2.3.62,3.17,1.74,3.17,2.83,0,1.76-2.41,2.91-2.41,4.4s2.1,2.4,6.58,3.75l-1,2.49C902.07,407.05,899.94,405.76,899.94,403.63Z"/><path class="cls-3" d="M934.1,430.77l-1.65.05v6h-3.11V417.16l3.11-.28v11.7l1.65,0a53.15,53.15,0,0,0,3.89-5.79l3.19.25c-1.37,2.16-2.85,4.34-4.45,6.41l4.84,7.17-3.33.39Z"/><path class="cls-3" d="M943.87,430.07c0-4.29,3.14-7.59,6.8-7.59,3.92,0,5.8,3.08,5.29,7.92l-9,.25c.33,2.8,2.43,3.73,8.59,3.87l-.3,2.6C946.25,437.21,943.87,434.6,943.87,430.07Zm3.08-1.26c1.48-.06,4.31-.14,6-.2-.09-2.21-1-3.58-2.89-3.58S947.09,426.2,947,428.81Z"/><path class="cls-3" d="M959.41,438.94c3.3-.47,4.17-.78,5-2.66l-.53-.2c-1.32-2.93-4.2-10.35-5.26-13.13l3.16-.22c1.15,3.08,2.63,7.28,3.92,10.36H966c.87-2.69,2.77-9.32,3.14-10.25h3c-1,3.17-2.38,7.37-3.92,11.51-2,5.63-3.5,6.94-8.51,7.39Z"/><path class="cls-4" d="M978.5,436.79l.14-3.92h4.29l-.14,3.92Zm.26-9,0-3.92h4.26L983,427.8Z"/><path class="cls-4" d="M1014.17,435.47a5.48,5.48,0,0,1-3.83,1.68c-2.94,0-5.1-2.44-5.1-6.58a7.67,7.67,0,0,1,8-8.09,4.57,4.57,0,0,1,.64,0v-5.35l3.11-.28v5.93c0,6.53.06,10.81.2,13.89l-2.89.17Zm-.16-1.74c-.06-2.15-.09-4.87-.09-8.23a6.76,6.76,0,0,0-2-.36c-2.13,0-3.62,1.57-3.62,4.65,0,3.3,1.38,4.81,3.31,4.81A3.74,3.74,0,0,0,1014,433.73Z"/><path class="cls-4" d="M1020.61,430.15c0-4.54,3.11-7.73,6.81-7.73,3.5,0,5.91,2.55,5.91,7.09s-3.08,7.7-6.81,7.7C1023.08,437.21,1020.61,434.66,1020.61,430.15Zm9.58-.08c0-3.36-1.29-5.1-3.3-5.1s-3.11,1.54-3.11,4.59c0,3.39,1.29,5.13,3.3,5.13S1030.19,433.15,1030.19,430.07Z"/><path class="cls-4" d="M1045.09,435.27a6.6,6.6,0,0,1-4.46,1.88c-2.43,0-4-1.4-4-4.82V423l3.11-.19v8.48c0,2.47.89,3.25,2.32,3.25a4.87,4.87,0,0,0,2.8-.95c-.06-2.58-.08-6.19-.08-10.7h3.1c0,6.27.06,10.67.23,13.86l-2.89.14Z"/><path class="cls-4" d="M1052.25,436.39V417.16l3.11-.28V424a5.44,5.44,0,0,1,3.67-1.51c2.94,0,5.07,2.57,5.07,6.63a7.62,7.62,0,0,1-7.65,8A11.21,11.21,0,0,1,1052.25,436.39Zm8.77-6.52c0-3.22-1.35-4.84-3.25-4.84a4.22,4.22,0,0,0-2.41.84v8.2a6.63,6.63,0,0,0,2.21.39C1059.7,434.46,1061,433,1061,429.87Z"/><path class="cls-4" d="M1067.4,436.79v-2.36h4.31V419.65l-4.17-.22.28-2.22h7v17.22h4.31l-.25,2.36Z"/><path class="cls-4" d="M1082.46,430.07c0-4.29,3.14-7.59,6.81-7.59,3.92,0,5.79,3.08,5.29,7.92l-9,.25c.34,2.8,2.44,3.73,8.6,3.87l-.31,2.6C1084.84,437.21,1082.46,434.6,1082.46,430.07Zm3.08-1.26c1.49-.06,4.32-.14,6-.2-.08-2.21-.95-3.58-2.88-3.58S1085.68,426.2,1085.54,428.81Z"/><path class="cls-4" d="M1109.54,436.9c-9,.72-11.56-3.28-11.56-8.54,0-4.85,2.88-9,11.5-9.19l.17,3.08c-7.14-.14-8.34,1.91-8.34,5.69,0,4.56,1.87,6.55,8.51,6.21Z"/><path class="cls-4" d="M1113,430.15c0-4.54,3.11-7.73,6.8-7.73,3.5,0,5.91,2.55,5.91,7.09s-3.08,7.7-6.8,7.7C1115.47,437.21,1113,434.66,1113,430.15Zm9.58-.08c0-3.36-1.29-5.1-3.31-5.1-1.87,0-3.11,1.54-3.11,4.59,0,3.39,1.29,5.13,3.31,5.13S1122.59,433.15,1122.59,430.07Z"/><path class="cls-4" d="M1137.48,435.27a6.6,6.6,0,0,1-4.45,1.88c-2.44,0-4-1.4-4-4.82V423l3.11-.19v8.48c0,2.47.9,3.25,2.33,3.25a4.89,4.89,0,0,0,2.8-.95c-.06-2.58-.09-6.19-.09-10.7h3.11c0,6.27.06,10.67.22,13.86l-2.88.14Z"/><path class="cls-4" d="M1147.65,426.06c0,2.61.11,6.25.11,10.73h-3.14c0-6.28,0-10.67-.22-13.84l2.88-.16.17,1.59a6.55,6.55,0,0,1,4.48-1.9c2.44,0,4,1.43,4,4.81v9.5h-3.1v-8.4c0-2.47-.93-3.25-2.36-3.25A5,5,0,0,0,1147.65,426.06Z"/><path class="cls-4" d="M1162.51,432.14v-6.92h-2.85l.28-2.38h2.57v-3.75l3.08-.28v4h5.27v2.38h-5.27v6.44c0,2.19,1.32,2.69,5.58,2.77l-.34,2.58C1164.56,437.12,1162.51,435.72,1162.51,432.14Z"/><path class="cls-4" d="M1178.7,432.81l4-.2c1.26,3.14-.36,6.78-2.8,9l-1.65-.48A8.1,8.1,0,0,0,1178.7,432.81Z"/><path class="cls-4" d="M897.92,473.77c4.68-1.28,6.78-2.26,6.78-3.36,0-1.28-2.55-2.63-2.55-4.22,0-1,.87-2.19,3.19-2.92-2.32-.61-3.19-1.7-3.19-2.8,0-1.76,2.41-2.91,2.41-4.39s-2.1-2.44-6.58-3.78l1-2.47c6.53,2.08,8.66,3.36,8.66,5.49s-2.55,3.45-2.55,4.71c0,1,1.29,1.7,4.06,1.93l-.11,2.21c-3.19.31-4.15.81-4.15,1.57,0,1.15,2.78,2.29,2.78,4.42s-2.22,4.06-8.8,6.16Z"/><path class="cls-2" d="M807.51,442.65c0-9.41-26.91-12.76-26.91-26.07,0-8.66,9.87-17.79,33.89-16.49l.56,9.6c-18.72-1.31-23.37,1.21-23.37,5.39,0,8.66,26.91,12.48,26.91,26.26,0,9.13-10,18.72-37.8,17.6v-9.59C800.43,450.84,807.51,447.49,807.51,442.65Z"/><path class="cls-2" d="M797.46,574.86a61.33,61.33,0,1,1-61.33,61.32,61.4,61.4,0,0,1,61.33-61.32m0-2a63.33,63.33,0,1,0,63.33,63.32,63.33,63.33,0,0,0-63.33-63.32Z"/><path class="cls-4" d="M899.94,606.63c0-2.21,2.55-3.44,2.55-4.67,0-1-1.32-1.74-4.06-2l.08-2.19c3.22-.33,4.17-.81,4.17-1.56,0-1.15-2.77-2.33-2.8-4.46s2.24-4.06,8.82-6.13l1,2.52c-4.67,1.29-6.8,2.27-6.8,3.39s2.58,2.63,2.58,4.2c0,1-.87,2.21-3.17,2.91,2.3.62,3.17,1.74,3.17,2.83,0,1.76-2.41,2.91-2.41,4.4s2.1,2.4,6.58,3.75l-1,2.49C902.07,610.05,899.94,608.76,899.94,606.63Z"/><path class="cls-3" d="M934.1,633.77l-1.65.05v6h-3.11V620.16l3.11-.28v11.7l1.65,0a53.15,53.15,0,0,0,3.89-5.79l3.19.25c-1.37,2.16-2.85,4.34-4.45,6.41l4.84,7.17-3.33.39Z"/><path class="cls-3" d="M943.87,633.07c0-4.29,3.14-7.59,6.8-7.59,3.92,0,5.8,3.08,5.29,7.92l-9,.25c.33,2.8,2.43,3.73,8.59,3.87l-.3,2.6C946.25,640.21,943.87,637.6,943.87,633.07Zm3.08-1.26c1.48-.06,4.31-.14,6-.2-.09-2.21-1-3.58-2.89-3.58S947.09,629.2,947,631.81Z"/><path class="cls-3" d="M959.41,641.94c3.3-.47,4.17-.78,5-2.66l-.53-.2c-1.32-2.93-4.2-10.35-5.26-13.13l3.16-.22c1.15,3.08,2.63,7.28,3.92,10.36H966c.87-2.69,2.77-9.32,3.14-10.25h3c-1,3.17-2.38,7.37-3.92,11.51-2,5.63-3.5,6.94-8.51,7.39Z"/><path class="cls-4" d="M978.5,639.79l.14-3.92h4.29l-.14,3.92Zm.26-9,0-3.92h4.26L983,630.8Z"/><path class="cls-4" d="M1014.17,638.47a5.48,5.48,0,0,1-3.83,1.68c-2.94,0-5.1-2.44-5.1-6.58a7.67,7.67,0,0,1,8-8.09,4.57,4.57,0,0,1,.64,0v-5.35l3.11-.28v5.93c0,6.53.06,10.81.2,13.89l-2.89.17Zm-.16-1.74c-.06-2.15-.09-4.87-.09-8.23a6.76,6.76,0,0,0-2-.36c-2.13,0-3.62,1.57-3.62,4.65,0,3.3,1.38,4.81,3.31,4.81A3.74,3.74,0,0,0,1014,636.73Z"/><path class="cls-4" d="M1020.61,633.15c0-4.54,3.11-7.73,6.81-7.73,3.5,0,5.91,2.55,5.91,7.09s-3.08,7.7-6.81,7.7C1023.08,640.21,1020.61,637.66,1020.61,633.15Zm9.58-.08c0-3.36-1.29-5.1-3.3-5.1s-3.11,1.54-3.11,4.59c0,3.39,1.29,5.13,3.3,5.13S1030.19,636.15,1030.19,633.07Z"/><path class="cls-4" d="M1045.09,638.27a6.6,6.6,0,0,1-4.46,1.88c-2.43,0-4-1.4-4-4.82V626l3.11-.19v8.48c0,2.47.89,3.25,2.32,3.25a4.87,4.87,0,0,0,2.8-1c-.06-2.58-.08-6.19-.08-10.7h3.1c0,6.27.06,10.67.23,13.86l-2.89.14Z"/><path class="cls-4" d="M1052.25,639.39V620.16l3.11-.28V627a5.44,5.44,0,0,1,3.67-1.51c2.94,0,5.07,2.57,5.07,6.63a7.62,7.62,0,0,1-7.65,8A11.21,11.21,0,0,1,1052.25,639.39Zm8.77-6.52c0-3.22-1.35-4.84-3.25-4.84a4.22,4.22,0,0,0-2.41.84v8.2a6.63,6.63,0,0,0,2.21.39C1059.7,637.46,1061,636,1061,632.87Z"/><path class="cls-4" d="M1067.4,639.79v-2.36h4.31V622.65l-4.17-.22.28-2.22h7v17.22h4.31l-.25,2.36Z"/><path class="cls-4" d="M1082.46,633.07c0-4.29,3.14-7.59,6.81-7.59,3.92,0,5.79,3.08,5.29,7.92l-9,.25c.34,2.8,2.44,3.73,8.6,3.87l-.31,2.6C1084.84,640.21,1082.46,637.6,1082.46,633.07Zm3.08-1.26c1.49-.06,4.32-.14,6-.2-.08-2.21-.95-3.58-2.88-3.58S1085.68,629.2,1085.54,631.81Z"/><path class="cls-4" d="M1109.54,639.9c-9,.72-11.56-3.28-11.56-8.54,0-4.85,2.88-9,11.5-9.19l.17,3.08c-7.14-.14-8.34,1.91-8.34,5.69,0,4.56,1.87,6.55,8.51,6.21Z"/><path class="cls-4" d="M1113,633.15c0-4.54,3.11-7.73,6.8-7.73,3.5,0,5.91,2.55,5.91,7.09s-3.08,7.7-6.8,7.7C1115.47,640.21,1113,637.66,1113,633.15Zm9.58-.08c0-3.36-1.29-5.1-3.31-5.1-1.87,0-3.11,1.54-3.11,4.59,0,3.39,1.29,5.13,3.31,5.13S1122.59,636.15,1122.59,633.07Z"/><path class="cls-4" d="M1137.48,638.27a6.6,6.6,0,0,1-4.45,1.88c-2.44,0-4-1.4-4-4.82V626l3.11-.19v8.48c0,2.47.9,3.25,2.33,3.25a4.89,4.89,0,0,0,2.8-1c-.06-2.58-.09-6.19-.09-10.7h3.11c0,6.27.06,10.67.22,13.86l-2.88.14Z"/><path class="cls-4" d="M1147.65,629.06c0,2.61.11,6.25.11,10.73h-3.14c0-6.28,0-10.67-.22-13.84l2.88-.16.17,1.59a6.55,6.55,0,0,1,4.48-1.9c2.44,0,4,1.43,4,4.81v9.5h-3.1v-8.4c0-2.47-.93-3.25-2.36-3.25A5,5,0,0,0,1147.65,629.06Z"/><path class="cls-4" d="M1162.51,635.14v-6.92h-2.85l.28-2.38h2.57v-3.75l3.08-.28v4h5.27v2.38h-5.27v6.44c0,2.19,1.32,2.69,5.58,2.77l-.34,2.58C1164.56,640.12,1162.51,638.72,1162.51,635.14Z"/><path class="cls-4" d="M1175.7,639.79V622.45c8-1.09,11.84,1,11.84,5.41,0,4.2-3.58,6.19-8.65,6.72v5.21Zm3.19-14.87v7c3.59.36,5.49-.53,5.49-3.42C1184.38,625.81,1182.56,624.5,1178.89,624.92Z"/><path class="cls-4" d="M1190.6,639.79v-2.36h4.31V622.65l-4.17-.22.28-2.22h7v17.22h4.32l-.26,2.36Z"/><path class="cls-4" d="M1214.48,638.27a6.6,6.6,0,0,1-4.45,1.88c-2.44,0-4-1.4-4-4.82V626l3.11-.19v8.48c0,2.47.9,3.25,2.32,3.25a4.87,4.87,0,0,0,2.8-1c0-2.58-.08-6.19-.08-10.7h3.11c0,6.27,0,10.67.22,13.86l-2.88.14Z"/><path class="cls-4" d="M1232,628.39c-5.18-.45-6.78.17-6.78,1.15,0,1.87,7.48,2.69,7.48,6.19,0,2.4-2.58,4.56-10.61,4.2l.11-2.66c5.54.36,7.25-.28,7.25-1.38,0-2-7.45-2.49-7.45-6,0-2.41,2.58-4.7,9.89-4.2Z"/><path class="cls-4" d="M1244.21,639.79H1241V625.11h-5.1l.22-2.68h13.08v2.68h-5Z"/><path class="cls-4" d="M1251.86,633.07c0-4.29,3.13-7.59,6.8-7.59,3.92,0,5.8,3.08,5.29,7.92l-9,.25c.33,2.8,2.43,3.73,8.59,3.87l-.31,2.6C1254.24,640.21,1251.86,637.6,1251.86,633.07Zm3.08-1.26c1.48-.06,4.31-.14,6-.2-.09-2.21-1-3.58-2.89-3.58S1255.08,629.2,1254.94,631.81Z"/><path class="cls-4" d="M1270.84,629.06c.06,2.61.11,6.25.11,10.73h-3.13c0-6.28-.06-10.67-.23-13.84l2.89-.16.17,1.59a6.51,6.51,0,0,1,4.47-1.9c2.44,0,4,1.43,4,4.81v9.5H1276v-8.4c0-2.47-.92-3.25-2.35-3.25A5.1,5.1,0,0,0,1270.84,629.06Z"/><path class="cls-4" d="M1286.49,635.81l4-.2c1.26,3.14-.37,6.78-2.8,9l-1.66-.48A8.06,8.06,0,0,0,1286.49,635.81Z"/><path class="cls-4" d="M897.92,676.77c4.68-1.28,6.78-2.26,6.78-3.36,0-1.28-2.55-2.63-2.55-4.22,0-1,.87-2.19,3.19-2.92-2.32-.61-3.19-1.7-3.19-2.8,0-1.76,2.41-2.91,2.41-4.39s-2.1-2.44-6.58-3.78l1-2.47c6.53,2.08,8.66,3.36,8.66,5.49s-2.55,3.45-2.55,4.71c0,1,1.29,1.7,4.06,1.93l-.11,2.21c-3.19.31-4.15.81-4.15,1.57,0,1.15,2.78,2.29,2.78,4.42s-2.22,4.06-8.8,6.16Z"/><path class="cls-2" d="M807.51,645.65c0-9.41-26.91-12.76-26.91-26.07,0-8.66,9.87-17.79,33.89-16.49l.56,9.6c-18.72-1.31-23.37,1.21-23.37,5.39,0,8.66,26.91,12.48,26.91,26.26,0,9.13-10,18.72-37.8,17.6v-9.59C800.43,653.84,807.51,650.49,807.51,645.65Z"/><line class="cls-6" x1="614.57" y1="445.78" x2="716.3" y2="445.78"/><polyline class="cls-6" points="699.67 464.6 717.7 447.23 702.21 425.46"/><line class="cls-6" x1="797.46" y1="506.36" x2="797.46" y2="560.18"/><polyline class="cls-6" points="779.53 544.94 796.9 562.97 818.67 547.48"/><polyline class="cls-6" points="839.06 96.58 819.8 112.59 833.66 135.42"/><path class="cls-5" d="M202.05,215.89s67.63,43.58,63,124.34"/><path class="cls-6" d="M1290.93,603s16-372.91-467.21-489.94"/></svg>