<svg id="Layer_1" data-name="Layer 1" xmlns="http://www.w3.org/2000/svg" viewBox="0 0 1420 780"><defs><style>.cls-1{fill:#f2f2f2;}.cls-2{fill:#f6a7ba;}.cls-3{fill:#62afee;}.cls-4{fill:#fff;}.cls-5,.cls-6{fill:none;stroke-linecap:round;stroke-linejoin:round;stroke-width:3px;}.cls-5{stroke:#fff;}.cls-6{stroke:#62afee;}</style></defs><path class="cls-1" d="M623.84,192.56l-11.64,9.36v.44l11.68,9.36-2.52,3.2L608.2,204v-3.72l13.24-10.88Z"/><path class="cls-2" d="M632.88,198.36c.08,3.72.12,9,.12,15.6h-4.12c0-9,0-15.24-.16-19.76l3.8-.24.16,1.72a5.7,5.7,0,0,1,4.12-2.16,2.76,2.76,0,0,1,2.88,2.16,5.74,5.74,0,0,1,4.24-2.16c2.28,0,3.4,1.6,3.4,4.56V214H643.2V199.64c0-1.72-.48-2.32-1.52-2.32a2.74,2.74,0,0,0-2,.92V214h-3.16V199.6c0-1.68-.44-2.28-1.44-2.28A3.31,3.31,0,0,0,632.88,198.36Z"/><path class="cls-2" d="M651.48,217c4.72-.68,6-1.12,7.12-3.8l-.76-.28c-1.88-4.2-6-14.8-7.52-18.76l4.52-.32c1.64,4.4,3.76,10.4,5.6,14.8h.4c1.24-3.84,4-13.32,4.48-14.64h4.28c-1.44,4.52-3.4,10.52-5.6,16.44-2.88,8-5,9.92-12.16,10.56Z"/><path class="cls-2" d="M688.2,204H675.72v-3.8h12.8Z"/><path class="cls-2" d="M711.48,193.76l.28,4.2c-10-.32-11.48,2-11.48,5.8,0,5.12,2.8,7.2,11.76,6.68l-.44,3.68c-12.44,1-15.72-3.64-15.72-9.8C695.88,198.76,699.56,193.8,711.48,193.76Z"/><path class="cls-2" d="M716.92,204.48c0-6.48,4.44-11,9.72-11,5,0,8.44,3.64,8.44,10.12,0,6.64-4.4,11-9.72,11C720.44,214.56,716.92,210.92,716.92,204.48Zm13.68-.12c0-4.8-1.84-7.28-4.72-7.28-2.68,0-4.44,2.2-4.44,6.56,0,4.84,1.84,7.32,4.72,7.32C728.84,211,730.6,208.76,730.6,204.36Z"/><path class="cls-2" d="M751.88,211.8a9.42,9.42,0,0,1-6.36,2.68c-3.48,0-5.68-2-5.68-6.88V194.2l4.44-.28V206c0,3.52,1.28,4.64,3.32,4.64a6.89,6.89,0,0,0,4-1.36c-.08-3.68-.12-8.84-.12-15.28h4.44c0,9,.08,15.24.32,19.8l-4.12.2Z"/><path class="cls-2" d="M766.4,198.64c.08,3.72.16,8.92.16,15.32h-4.48c0-9-.08-15.24-.32-19.76l4.12-.24.24,2.28a9.37,9.37,0,0,1,6.4-2.72c3.48,0,5.72,2,5.72,6.88V214H773.8V202c0-3.52-1.32-4.64-3.36-4.64A7.26,7.26,0,0,0,766.4,198.64Z"/><path class="cls-2" d="M787.64,207.32v-9.88h-4.08l.4-3.4h3.68v-5.36l4.4-.4V194h7.52v3.4H792v9.2c0,3.12,1.88,3.84,8,4l-.48,3.68C790.56,214.44,787.64,212.44,787.64,207.32Z"/><path class="cls-2" d="M805.28,204.36c0-6.12,4.48-10.84,9.72-10.84,5.6,0,8.28,4.4,7.56,11.32l-12.84.36c.48,4,3.48,5.32,12.28,5.52l-.44,3.72C808.68,214.56,805.28,210.84,805.28,204.36Zm4.4-1.8c2.12-.08,6.16-.2,8.64-.28-.12-3.16-1.36-5.12-4.12-5.12S809.88,198.84,809.68,202.56Z"/><path class="cls-2" d="M827.64,214V210.6h4.84c-.08-5.4-.12-9.56-.2-13.08l-4.72-.32.36-3.16h8.24c0,.2.28,2.44.36,3.44a13.09,13.09,0,0,1,8.4-4.2l.2,4.72a22.2,22.2,0,0,0-8.44,2c.08,3,.12,6.36.2,10.6h6l-.36,3.36Z"/><path class="cls-1" d="M850.2,211.8l11.72-9.44v-.44l-11.6-9.28,2.48-3.2,13.12,10.84V204L852.6,214.92Z"/><path class="cls-3" d="M154.88,293.68c-7.4-.64-9.68.24-9.68,1.64,0,2.68,10.68,3.84,10.68,8.84,0,3.44-3.68,6.52-15.16,6l.16-3.8c7.92.52,10.36-.4,10.36-2,0-2.84-10.64-3.56-10.64-8.56,0-3.44,3.68-6.72,14.12-6Z"/><path class="cls-3" d="M161.28,300.36c0-6.12,4.48-10.84,9.72-10.84,5.6,0,8.28,4.4,7.56,11.32l-12.84.36c.48,4,3.48,5.32,12.28,5.52l-.44,3.72C164.68,310.56,161.28,306.84,161.28,300.36Zm4.4-1.8c2.12-.08,6.16-.2,8.64-.28-.12-3.16-1.36-5.12-4.12-5.12S165.88,294.84,165.68,298.56Z"/><path class="cls-3" d="M187.64,303.32v-9.88h-4.08l.4-3.4h3.68v-5.36l4.4-.4V290h7.52v3.4H192v9.2c0,3.12,1.88,3.84,8,4l-.48,3.68C190.56,310.44,187.64,308.44,187.64,303.32Z"/><path class="cls-3" d="M222,310.12c-12.8,1-16.52-4.68-16.52-12.2,0-6.92,4.12-12.88,16.44-13.12l.24,4.4c-10.2-.2-11.92,2.72-11.92,8.12,0,6.52,2.68,9.36,12.16,8.88Z"/><path class="cls-3" d="M226.92,300.48c0-6.48,4.44-11,9.72-11,5,0,8.44,3.64,8.44,10.12,0,6.64-4.4,11-9.72,11C230.44,310.56,226.92,306.92,226.92,300.48Zm13.68-.12c0-4.8-1.84-7.28-4.72-7.28-2.68,0-4.44,2.2-4.44,6.56,0,4.84,1.84,7.32,4.72,7.32C238.84,307,240.6,304.76,240.6,300.36Z"/><path class="cls-3" d="M261.88,307.8a9.42,9.42,0,0,1-6.36,2.68c-3.48,0-5.68-2-5.68-6.88V290.2l4.44-.28V302c0,3.52,1.28,4.64,3.32,4.64a6.89,6.89,0,0,0,4-1.36c-.08-3.68-.12-8.84-.12-15.28h4.44c0,9,.08,15.24.32,19.8l-4.12.2Z"/><path class="cls-3" d="M276.4,294.64c.08,3.72.16,8.92.16,15.32h-4.48c0-9-.08-15.24-.32-19.76l4.12-.24.24,2.28a9.37,9.37,0,0,1,6.4-2.72c3.48,0,5.72,2,5.72,6.88V310H283.8V298c0-3.52-1.32-4.64-3.36-4.64A7.26,7.26,0,0,0,276.4,294.64Z"/><path class="cls-3" d="M297.64,303.32v-9.88h-4.08l.4-3.4h3.68v-5.36l4.4-.4V290h7.52v3.4H302v9.2c0,3.12,1.88,3.84,8,4l-.48,3.68C300.56,310.44,297.64,308.44,297.64,303.32Z"/><path class="cls-1" d="M332,283.44c-7.92,6.4-10.48,11.16-10.48,16s2.68,9.8,10.36,16l-3.08,2.76c-8.4-7.2-11.68-12.92-11.68-18.6,0-5.84,3.36-11.68,11.88-18.92Z"/><path class="cls-1" d="M338.36,306.44c8.8-.52,11.52-1.68,11.52-3.64,0-1.8-2.48-3.64-9.6-4.48v-2l8.84-7.32h-10.4v-3.84h14.56l.32,3.84-8.4,7c6.56,1.24,9,3.72,9,6.52,0,4.28-4.6,7.44-15.48,8Z"/><path class="cls-1" d="M360,315.56c7.92-6.36,10.48-11.16,10.48-16s-2.64-9.8-10.36-16l3.08-2.76c8.4,7.2,11.72,12.92,11.72,18.6S371.6,311,363.08,318.28Z"/><path class="cls-1" d="M387,304.32l5.8-.28c1.8,4.56-.6,9.64-4.08,12.8l-2.36-.72C388.6,313.24,389,308.52,387,304.32Zm.2-7.2.08-5.6h6.12l-.08,5.6Z"/><path class="cls-4" d="M1130.44,273.72c0-6.92,3.92-12.48,12.68-16.44L1145,261c-6.36,2.56-9,5.28-9.92,8.76,5.64-4,12.6-1.52,12.6,5.16a8.34,8.34,0,0,1-8.68,8.52C1133.88,283.44,1130.44,280.08,1130.44,273.72Zm13.08,1.64c0-4.44-4.16-5.84-8.88-2.92v.84c0,4.6,2,6.64,4.72,6.64C1141.76,279.92,1143.52,278.32,1143.52,275.36Z"/><path class="cls-2" d="M332.37,462.72a60.33,60.33,0,1,1-60.32,60.33,60.39,60.39,0,0,1,60.32-60.33m0-3a63.33,63.33,0,1,0,63.33,63.33,63.32,63.32,0,0,0-63.33-63.33Z"/><path class="cls-2" d="M339.69,531.29h-17c-1.3,5.26-2.5,10.62-3.79,15.89H308.38c4.9-19,9.88-38.24,15.61-57.36h14.69c5.63,19.12,10.71,38,15.6,57l-10.71.73C342.28,542.19,341,536.74,339.69,531.29Zm-15.15-7.76h13.3c-2-8.4-4.15-16.81-6.28-25h-.74C328.7,506.81,326.58,515.13,324.54,523.53Z"/><path class="cls-4" d="M434.77,477.9c0-2.22,2.55-3.45,2.55-4.68,0-1-1.32-1.74-4.06-2l.08-2.18c3.22-.34,4.18-.82,4.18-1.57,0-1.15-2.78-2.33-2.8-4.45s2.24-4.06,8.82-6.14l1,2.52c-4.68,1.29-6.81,2.27-6.81,3.39s2.58,2.63,2.58,4.2c0,1-.87,2.21-3.17,2.91,2.3.62,3.17,1.74,3.17,2.83,0,1.77-2.41,2.91-2.41,4.4s2.1,2.41,6.58,3.75l-1,2.49C436.9,481.31,434.77,480,434.77,477.9Z"/><path class="cls-3" d="M468.93,505l-1.65.05v6h-3.11V491.42l3.11-.28v11.7l1.65,0a53.29,53.29,0,0,0,3.89-5.8l3.2.25c-1.38,2.16-2.86,4.34-4.46,6.41l4.85,7.17-3.33.39Z"/><path class="cls-3" d="M478.7,504.33c0-4.29,3.14-7.59,6.81-7.59,3.92,0,5.79,3.08,5.29,7.92l-9,.26c.34,2.8,2.44,3.72,8.6,3.86l-.31,2.6C481.08,511.47,478.7,508.86,478.7,504.33Zm3.08-1.26c1.49-.06,4.31-.14,6.05-.2-.08-2.21-.95-3.58-2.88-3.58S481.92,500.46,481.78,503.07Z"/><path class="cls-3" d="M494.24,513.2c3.31-.47,4.17-.78,5-2.66l-.54-.19c-1.31-2.94-4.2-10.36-5.26-13.13l3.16-.23c1.15,3.08,2.64,7.28,3.92,10.36h.28c.87-2.69,2.78-9.32,3.14-10.25h3c-1,3.17-2.38,7.37-3.92,11.51-2,5.63-3.5,6.95-8.52,7.39Z"/><path class="cls-4" d="M513.34,511.05l.14-3.92h4.28l-.14,3.92Zm.25-9,.06-3.92h4.25l0,3.92Z"/><path class="cls-4" d="M548.64,500.49l-4,.23c-1.29-3.17.31-6.81,2.77-9l1.65.48A8.11,8.11,0,0,0,548.64,500.49Z"/><path class="cls-4" d="M567,496.91l.2,2.94c-7-.23-8,1.37-8,4.06,0,3.58,2,5,8.23,4.67l-.31,2.58c-8.7.73-11-2.55-11-6.86C556.12,500.41,558.7,496.94,567,496.91Z"/><path class="cls-4" d="M570.85,504.41c0-4.53,3.11-7.73,6.8-7.73,3.5,0,5.91,2.55,5.91,7.09s-3.08,7.7-6.81,7.7C573.31,511.47,570.85,508.92,570.85,504.41Zm9.57-.08c0-3.36-1.29-5.1-3.3-5.1s-3.11,1.54-3.11,4.59c0,3.39,1.29,5.13,3.31,5.13C579.19,509,580.42,507.41,580.42,504.33Z"/><path class="cls-4" d="M595.32,509.54a6.59,6.59,0,0,1-4.45,1.87c-2.44,0-4-1.4-4-4.81v-9.38L590,497v8.48c0,2.47.89,3.25,2.32,3.25a4.79,4.79,0,0,0,2.8-.95c0-2.58-.08-6.19-.08-10.7h3.11c0,6.28.05,10.67.22,13.86l-2.88.14Z"/><path class="cls-4" d="M605.48,500.32c.06,2.61.11,6.25.11,10.73h-3.13c0-6.27-.06-10.67-.23-13.83l2.89-.17.17,1.59a6.58,6.58,0,0,1,4.48-1.9c2.43,0,4,1.43,4,4.82v9.49h-3.11v-8.4c0-2.47-.92-3.25-2.35-3.25A5.1,5.1,0,0,0,605.48,500.32Z"/><path class="cls-4" d="M620.35,506.4v-6.92h-2.86l.28-2.38h2.58v-3.75l3.08-.28v4h5.26v2.38h-5.26v6.44c0,2.19,1.32,2.69,5.57,2.78l-.33,2.57C622.39,511.38,620.35,510,620.35,506.4Z"/><path class="cls-4" d="M636.92,492.32l4-.23c1.29,3.17-.31,6.81-2.74,9l-1.68-.51C638,498.59,638.33,495.28,636.92,492.32Z"/><path class="cls-4" d="M651.93,507.07l4-.19c1.26,3.13-.37,6.77-2.8,9l-1.66-.47A8.08,8.08,0,0,0,651.93,507.07Z"/><path class="cls-3" d="M472,543.33a5.46,5.46,0,0,1-3.84,1.68c-2.93,0-5.09-2.43-5.09-6.58a7.67,7.67,0,0,1,8-8.09,4.57,4.57,0,0,1,.64,0V525l3.11-.28v5.94c0,6.52.05,10.8.19,13.88l-2.88.17Zm-.17-1.73c0-2.16-.08-4.88-.08-8.24a6.77,6.77,0,0,0-2-.36c-2.13,0-3.61,1.57-3.61,4.65,0,3.3,1.37,4.81,3.3,4.81A3.75,3.75,0,0,0,471.84,541.6Z"/><path class="cls-3" d="M478.7,537.93c0-4.29,3.14-7.59,6.81-7.59,3.92,0,5.79,3.08,5.29,7.92l-9,.26c.34,2.8,2.44,3.72,8.6,3.86l-.31,2.6C481.08,545.07,478.7,542.46,478.7,537.93Zm3.08-1.26c1.49-.06,4.31-.14,6.05-.2-.08-2.21-.95-3.58-2.88-3.58S481.92,534.06,481.78,536.67Z"/><path class="cls-3" d="M505.41,544.65H494.63v-2.33h3.53v-8.65h-3.69l.28-2.38h3.41v0c0-3.58,2-6.27,8.54-6.6l.2,3c-5.1.17-5.63.62-5.63,3.11v.5H506v2.38h-4.7v8.65h4.42Z"/><path class="cls-3" d="M518.32,543.05a6.39,6.39,0,0,1-4.56,2c-2.49,0-4.2-1.37-4.2-3.64,0-2.8,2.63-5,8.51-4.79-.17-2.68-1.71-3.33-7.7-3.52l.31-2.64c8.4.14,10.5,1.88,10.5,7.31,0,2.72.11,4.93.25,6.86l-2.86.14C518.55,544.62,518.41,543.72,518.32,543.05Zm-.14-1.54c-.06-.81-.06-1.73-.08-2.88-4.31-.45-5.46.47-5.46,2,0,1.24.92,2,2.35,2A5.86,5.86,0,0,0,518.18,541.51Z"/><path class="cls-3" d="M533.72,543.14a6.59,6.59,0,0,1-4.45,1.87c-2.44,0-4-1.4-4-4.81v-9.38l3.11-.2v8.48c0,2.47.9,3.25,2.32,3.25a4.79,4.79,0,0,0,2.8-1c0-2.58-.08-6.19-.08-10.7h3.11c0,6.28.05,10.67.22,13.86l-2.88.14Z"/><path class="cls-3" d="M540.64,544.65V542.3H545V527.51l-4.17-.22.28-2.21h7V542.3h4.32l-.26,2.35Z"/><path class="cls-3" d="M558.75,540v-6.92H555.9l.28-2.38h2.57V527l3.08-.28v4h5.27v2.38h-5.27v6.44c0,2.19,1.32,2.69,5.57,2.78l-.33,2.57C560.8,545,558.75,543.58,558.75,540Z"/><path class="cls-4" d="M574.94,544.65l.14-3.92h4.28l-.14,3.92Zm.25-9,0-3.92h4.26l-.06,3.92Z"/><path class="cls-4" d="M601.67,536.25c0-5.6,2.52-9.33,6.56-9.33s6.1,3.31,6.1,8.77-2.49,9.32-6.52,9.32S601.67,541.71,601.67,536.25Zm3,.28,6.44-3.33c-.45-2.36-1.46-3.76-3.11-3.76-2.27,0-3.36,2.27-3.36,6.25A7.58,7.58,0,0,0,604.67,536.53Zm6.69-.28v-.73l-6.44,3.33c.45,2.3,1.49,3.64,3.11,3.64C610.3,542.49,611.36,540.22,611.36,536.25Z"/><path class="cls-4" d="M432.76,581.64c4.67-1.29,6.77-2.27,6.77-3.36,0-1.29-2.55-2.64-2.55-4.23,0-1,.87-2.19,3.2-2.91-2.33-.62-3.2-1.71-3.2-2.8,0-1.77,2.41-2.92,2.41-4.4s-2.1-2.44-6.58-3.78l1-2.46c6.52,2.07,8.65,3.36,8.65,5.48s-2.55,3.45-2.55,4.71c0,1,1.29,1.71,4.06,1.93L443.9,572c-3.19.31-4.14.81-4.14,1.57,0,1.15,2.77,2.3,2.77,4.42s-2.21,4.06-8.79,6.16Z"/><path class="cls-2" d="M864.46,462.86a61.33,61.33,0,1,1-61.33,61.32,61.4,61.4,0,0,1,61.33-61.32m0-2a63.33,63.33,0,1,0,63.33,63.32,63.33,63.33,0,0,0-63.33-63.32Z"/><path class="cls-4" d="M966.94,494.63c0-2.21,2.55-3.44,2.55-4.67,0-1-1.32-1.74-4.06-2l.08-2.19c3.22-.33,4.17-.81,4.17-1.56,0-1.15-2.77-2.33-2.8-4.46s2.24-4.06,8.82-6.13l1,2.52c-4.67,1.29-6.8,2.27-6.8,3.39s2.58,2.63,2.58,4.2c0,1-.87,2.21-3.17,2.91,2.3.62,3.17,1.74,3.17,2.83,0,1.76-2.41,2.91-2.41,4.4s2.1,2.4,6.58,3.75l-1,2.49C969.07,498.05,966.94,496.76,966.94,494.63Z"/><path class="cls-3" d="M1001.1,521.77l-1.65.05v6h-3.11V508.16l3.11-.28v11.7l1.65,0a53.15,53.15,0,0,0,3.89-5.79l3.19.25c-1.37,2.16-2.85,4.34-4.45,6.41l4.84,7.17-3.33.39Z"/><path class="cls-3" d="M1010.87,521.07c0-4.29,3.14-7.59,6.8-7.59,3.92,0,5.8,3.08,5.29,7.92l-9,.25c.33,2.8,2.43,3.73,8.59,3.87l-.3,2.6C1013.25,528.21,1010.87,525.6,1010.87,521.07Zm3.08-1.26c1.48-.06,4.31-.14,6-.2-.09-2.21-1-3.58-2.89-3.58S1014.09,517.2,1014,519.81Z"/><path class="cls-3" d="M1026.41,529.94c3.3-.47,4.17-.78,5-2.66l-.53-.2c-1.32-2.93-4.2-10.35-5.26-13.13l3.16-.22c1.15,3.08,2.63,7.28,3.92,10.36h.28c.87-2.69,2.77-9.32,3.14-10.25h3c-1,3.17-2.38,7.37-3.92,11.51-2,5.63-3.5,6.94-8.51,7.39Z"/><path class="cls-4" d="M1045.5,527.79l.14-3.92h4.29l-.14,3.92Zm.26-9,0-3.92h4.26l-.06,3.92Z"/><path class="cls-4" d="M1081.17,526.47a5.48,5.48,0,0,1-3.83,1.68c-2.94,0-5.1-2.44-5.1-6.58a7.67,7.67,0,0,1,8-8.09,4.57,4.57,0,0,1,.64,0v-5.35l3.11-.28v5.93c0,6.53.06,10.81.2,13.89l-2.89.17Zm-.16-1.74c-.06-2.15-.09-4.87-.09-8.23a6.76,6.76,0,0,0-2-.36c-2.13,0-3.62,1.57-3.62,4.65,0,3.3,1.38,4.81,3.31,4.81A3.74,3.74,0,0,0,1081,524.73Z"/><path class="cls-4" d="M1087.61,521.15c0-4.54,3.11-7.73,6.81-7.73,3.5,0,5.91,2.55,5.91,7.09s-3.08,7.7-6.81,7.7C1090.08,528.21,1087.61,525.66,1087.61,521.15Zm9.58-.08c0-3.36-1.29-5.1-3.3-5.1s-3.11,1.54-3.11,4.59c0,3.39,1.29,5.13,3.3,5.13S1097.19,524.15,1097.19,521.07Z"/><path class="cls-4" d="M1112.09,526.27a6.6,6.6,0,0,1-4.46,1.88c-2.43,0-4-1.4-4-4.82V514l3.11-.19v8.48c0,2.47.89,3.25,2.32,3.25a4.87,4.87,0,0,0,2.8-1c-.06-2.58-.08-6.19-.08-10.7h3.1c0,6.27.06,10.67.23,13.86l-2.89.14Z"/><path class="cls-4" d="M1119.25,527.39V508.16l3.11-.28V515a5.44,5.44,0,0,1,3.67-1.51c2.94,0,5.07,2.57,5.07,6.63a7.62,7.62,0,0,1-7.65,8A11.21,11.21,0,0,1,1119.25,527.39Zm8.77-6.52c0-3.22-1.35-4.84-3.25-4.84a4.22,4.22,0,0,0-2.41.84v8.2a6.63,6.63,0,0,0,2.21.39C1126.7,525.46,1128,524,1128,520.87Z"/><path class="cls-4" d="M1134.4,527.79v-2.36h4.31V510.65l-4.17-.22.28-2.22h7v17.22h4.31l-.25,2.36Z"/><path class="cls-4" d="M1149.46,521.07c0-4.29,3.14-7.59,6.81-7.59,3.92,0,5.79,3.08,5.29,7.92l-9,.25c.34,2.8,2.44,3.73,8.6,3.87l-.31,2.6C1151.84,528.21,1149.46,525.6,1149.46,521.07Zm3.08-1.26c1.49-.06,4.32-.14,6-.2-.08-2.21-.95-3.58-2.88-3.58S1152.68,517.2,1152.54,519.81Z"/><path class="cls-4" d="M1176.54,527.9c-9,.72-11.56-3.28-11.56-8.54,0-4.85,2.88-9,11.5-9.19l.17,3.08c-7.14-.14-8.34,1.91-8.34,5.69,0,4.56,1.87,6.55,8.51,6.21Z"/><path class="cls-4" d="M1180,521.15c0-4.54,3.11-7.73,6.8-7.73,3.5,0,5.91,2.55,5.91,7.09s-3.08,7.7-6.8,7.7C1182.47,528.21,1180,525.66,1180,521.15Zm9.58-.08c0-3.36-1.29-5.1-3.31-5.1-1.87,0-3.11,1.54-3.11,4.59,0,3.39,1.29,5.13,3.31,5.13S1189.59,524.15,1189.59,521.07Z"/><path class="cls-4" d="M1204.48,526.27a6.6,6.6,0,0,1-4.45,1.88c-2.44,0-4-1.4-4-4.82V514l3.11-.19v8.48c0,2.47.9,3.25,2.33,3.25a4.89,4.89,0,0,0,2.8-1c-.06-2.58-.09-6.19-.09-10.7h3.11c0,6.27.06,10.67.22,13.86l-2.88.14Z"/><path class="cls-4" d="M1214.65,517.06c0,2.61.11,6.25.11,10.73h-3.14c0-6.28,0-10.67-.22-13.84l2.88-.16.17,1.59a6.55,6.55,0,0,1,4.48-1.9c2.44,0,4,1.43,4,4.81v9.5h-3.1v-8.4c0-2.47-.93-3.25-2.36-3.25A5,5,0,0,0,1214.65,517.06Z"/><path class="cls-4" d="M1229.51,523.14v-6.92h-2.85l.28-2.38h2.57v-3.75l3.08-.28v4h5.27v2.38h-5.27v6.44c0,2.19,1.32,2.69,5.58,2.77l-.34,2.58C1231.56,528.12,1229.51,526.72,1229.51,523.14Z"/><path class="cls-4" d="M1245.7,523.81l4-.2c1.26,3.14-.36,6.78-2.8,9l-1.65-.48A8.1,8.1,0,0,0,1245.7,523.81Z"/><path class="cls-4" d="M964.92,564.77c4.68-1.28,6.78-2.26,6.78-3.36,0-1.28-2.55-2.63-2.55-4.22,0-1,.87-2.19,3.19-2.92-2.32-.61-3.19-1.7-3.19-2.8,0-1.76,2.41-2.91,2.41-4.39s-2.1-2.44-6.58-3.78l1-2.47c6.53,2.08,8.66,3.36,8.66,5.49s-2.55,3.45-2.55,4.71c0,1,1.29,1.7,4.06,1.93l-.11,2.21c-3.19.31-4.15.81-4.15,1.57,0,1.15,2.78,2.29,2.78,4.42s-2.22,4.06-8.8,6.16Z"/><path class="cls-2" d="M874.51,533.65c0-9.41-26.91-12.76-26.91-26.07,0-8.66,9.87-17.79,33.89-16.49l.56,9.6c-18.72-1.31-23.37,1.21-23.37,5.39,0,8.66,26.91,12.48,26.91,26.26,0,9.13-10,18.72-37.8,17.6v-9.59C867.43,541.84,874.51,538.49,874.51,533.65Z"/><line class="cls-5" x1="678.57" y1="526.78" x2="780.3" y2="526.78"/><path class="cls-5" d="M1235.12,491s-69.66-245.61-340.64-287.29"/><polyline class="cls-5" points="763.67 545.6 781.7 528.23 766.21 506.46"/><polyline class="cls-5" points="911.59 188.13 892.98 204.85 907.72 227.16"/><polyline class="cls-6" points="311 431.81 328.99 449.23 350.2 433"/><path class="cls-6" d="M265.94,324.89S333.57,368.47,329,449.23"/></svg>