<svg id="Layer_1" data-name="Layer 1" xmlns="http://www.w3.org/2000/svg" viewBox="0 0 1377.61 808.44"><defs><style>.cls-1{fill:#f6a7ba;}.cls-2,.cls-8{font-size:40px;}.cls-2,.cls-5{fill:#62afee;}.cls-2,.cls-4,.cls-8{font-family:OperatorMono-Medium, Operator Mono;font-weight:500;}.cls-3,.cls-8{fill:#f2f2f2;}.cls-4{font-size:28px;fill:#fff;}.cls-10,.cls-11,.cls-12,.cls-13,.cls-14,.cls-6,.cls-7,.cls-9{fill:none;stroke-linecap:round;stroke-linejoin:round;}.cls-6{stroke:#62afee;}.cls-6,.cls-7{stroke-width:3px;}.cls-10,.cls-11,.cls-12,.cls-13,.cls-14,.cls-7,.cls-9{stroke:#fff;}.cls-10{stroke-dasharray:12.63 12.63;}.cls-11{stroke-dasharray:11.42 11.42;}.cls-12{stroke-dasharray:11.33 11.33;}.cls-13{stroke-dasharray:12.24 12.24;}.cls-14{stroke-dasharray:11.58 11.58;}</style></defs><path class="cls-1" d="M265.37,631.72a60.33,60.33,0,1,1-60.32,60.33,60.39,60.39,0,0,1,60.32-60.33m0-3a63.33,63.33,0,1,0,63.33,63.33,63.32,63.32,0,0,0-63.33-63.33Z" transform="translate(-48.7 -22.28)"/><path class="cls-1" d="M272.69,700.29h-17c-1.3,5.26-2.5,10.62-3.79,15.89H241.38c4.9-19,9.88-38.24,15.61-57.36h14.69c5.63,19.12,10.71,38,15.6,57l-10.71.73C275.28,711.19,274,705.74,272.69,700.29Zm-15.15-7.76h13.3c-2-8.4-4.15-16.81-6.28-25h-.74C261.7,675.81,259.58,684.13,257.54,692.53Z" transform="translate(-48.7 -22.28)"/><text class="cls-2" transform="translate(0 477.96)">setCart<tspan class="cls-3" x="154" y="0">()</tspan></text><text class="cls-4" transform="translate(315.29 622.77)">{<tspan x="0" y="33.6" xml:space="preserve">  </tspan><tspan class="cls-5" x="30.8" y="33.6">key</tspan><tspan x="77" y="33.6">: ‘cart’,</tspan><tspan x="0" y="67.2" xml:space="preserve">  </tspan><tspan class="cls-5" x="30.8" y="67.2">default</tspan><tspan x="138.6" y="67.2">: []</tspan><tspan x="0" y="100.8">}</tspan></text><path class="cls-1" d="M826.37,631.72a60.33,60.33,0,1,1-60.32,60.33,60.39,60.39,0,0,1,60.32-60.33m0-3a63.33,63.33,0,1,0,63.33,63.33,63.32,63.32,0,0,0-63.33-63.33Z" transform="translate(-48.7 -22.28)"/><text class="cls-4" transform="translate(876.29 622.77)">{<tspan x="0" y="33.6" xml:space="preserve">  </tspan><tspan class="cls-5" x="30.8" y="33.6">key</tspan><tspan x="77" y="33.6">: ‘totalAmount’,</tspan><tspan x="0" y="67.2">}</tspan></text><path class="cls-1" d="M836.42,701.51c0-9.4-26.91-12.76-26.91-26.07,0-8.66,9.87-17.78,33.89-16.48l.56,9.59c-18.71-1.3-23.37,1.21-23.37,5.4,0,8.66,26.91,12.48,26.91,26.26,0,9.12-10,18.71-37.8,17.6v-9.59C829.34,709.7,836.42,706.35,836.42,701.51Z" transform="translate(-48.7 -22.28)"/><path class="cls-6" d="M605.43,648.86S756.7,557,755.7,293.86" transform="translate(-48.7 -22.28)"/><path class="cls-6" d="M183.43,300.86s-71,28-70.9,141.72" transform="translate(-48.7 -22.28)"/><polyline class="cls-6" points="47.03 407.36 64 422 80.97 407.36"/><polyline class="cls-6" points="725.96 287.35 706.91 271.08 686.77 288.62"/><path class="cls-6" d="M105.43,530.86s-31,175,69.71,161.59" transform="translate(-48.7 -22.28)"/><polyline class="cls-6" points="111.06 688.96 128.69 669.79 112.4 649.05"/><line class="cls-7" x1="554.99" y1="665.4" x2="686.16" y2="665.4"/><path class="cls-7" d="M1271.71,669.94s138.72-215.08-30-391.14" transform="translate(-48.7 -22.28)"/><polyline class="cls-7" points="672.63 649.32 689.6 666.29 672.63 683.26"/><polyline class="cls-7" points="1214.23 255.08 1190.41 254.67 1191.55 275.34"/><text class="cls-8" transform="translate(486.95 32.4)">&lt;<tspan class="cls-1" x="22" y="0">shop-app</tspan><tspan x="198" y="0">&gt;</tspan></text><text class="cls-8" transform="translate(651.34 134.4)">&lt;<tspan class="cls-1" x="22" y="0">shopping-cart</tspan><tspan x="308" y="0">&gt;</tspan></text><text class="cls-8" transform="translate(538.72 236.4)">&lt;<tspan class="cls-1" x="22" y="0">cart-items</tspan><tspan x="242" y="0">&gt;</tspan></text><text class="cls-8" transform="translate(850.34 236.4)">&lt;<tspan class="cls-1" x="22" y="0">shipping-cost</tspan><tspan x="308" y="0">&gt;</tspan></text><text class="cls-8" transform="translate(229.67 134.4)">&lt;<tspan class="cls-1" x="22" y="0">products-list</tspan><tspan x="307.99" y="0">&gt;</tspan></text><text class="cls-8" transform="translate(146.67 236.4)">&lt;<tspan class="cls-1" x="22" y="0">product-item</tspan><tspan x="285.99" y="0">&gt;</tspan></text><text class="cls-8" transform="translate(146.67 291.4)">&lt;<tspan class="cls-1" x="22" y="0">product-item</tspan><tspan x="285.99" y="0">&gt;</tspan></text><text class="cls-8" transform="translate(146.67 343.4)">&lt;<tspan class="cls-1" x="22" y="0">product-item</tspan><tspan x="285.99" y="0">&gt;</tspan></text><line class="cls-9" x1="596.73" y1="55.58" x2="590.87" y2="56.88"/><line class="cls-10" x1="578.54" y1="59.6" x2="436.75" y2="90.93"/><line class="cls-9" x1="430.59" y1="92.29" x2="424.73" y2="93.58"/><line class="cls-9" x1="394.73" y1="141.58" x2="389.57" y2="144.65"/><line class="cls-11" x1="379.76" y1="150.49" x2="325.79" y2="182.6"/><line class="cls-9" x1="320.89" y1="185.52" x2="315.73" y2="188.58"/><line class="cls-9" x1="631.73" y1="54.58" x2="637.6" y2="55.84"/><line class="cls-12" x1="648.68" y1="58.2" x2="798.32" y2="90.15"/><line class="cls-9" x1="803.86" y1="91.33" x2="809.73" y2="92.58"/><line class="cls-9" x1="816.73" y1="153.58" x2="810.98" y2="155.3"/><line class="cls-13" x1="799.26" y1="158.81" x2="711.34" y2="185.11"/><line class="cls-9" x1="705.48" y1="186.86" x2="699.73" y2="188.58"/><line class="cls-9" x1="840.73" y1="151.58" x2="846.56" y2="152.99"/><line class="cls-14" x1="857.82" y1="155.69" x2="987.27" y2="186.83"/><line class="cls-9" x1="992.9" y1="188.18" x2="998.73" y2="189.58"/></svg>