<svg id="Layer_1" data-name="Layer 1" xmlns="http://www.w3.org/2000/svg" viewBox="0 0 1274.55 729.13"><defs><style>.cls-1{fill:#f6a7ba;}.cls-2{fill:#62afee;}.cls-3{fill:#f2f2f2;}.cls-4{fill:#fff;}.cls-10,.cls-11,.cls-12,.cls-5,.cls-6,.cls-7,.cls-8,.cls-9{fill:none;stroke-linecap:round;stroke-linejoin:round;}.cls-5{stroke:#62afee;}.cls-5,.cls-6{stroke-width:3px;}.cls-10,.cls-11,.cls-12,.cls-6,.cls-7,.cls-8,.cls-9{stroke:#fff;}.cls-8{stroke-dasharray:12.63 12.63;}.cls-9{stroke-dasharray:11.42 11.42;}.cls-10{stroke-dasharray:11.33 11.33;}.cls-11{stroke-dasharray:12.24 12.24;}.cls-12{stroke-dasharray:11.58 11.58;}</style></defs><path class="cls-1" d="M265.37,631.72a60.33,60.33,0,1,1-60.32,60.33,60.39,60.39,0,0,1,60.32-60.33m0-3a63.33,63.33,0,1,0,63.33,63.33,63.32,63.32,0,0,0-63.33-63.33Z" transform="translate(-52.3 -26.24)"/><path class="cls-1" d="M272.69,700.29h-17c-1.3,5.26-2.5,10.62-3.79,15.89H241.38c4.9-19,9.88-38.24,15.61-57.36h14.69c5.63,19.12,10.71,38,15.6,57l-10.71.73C275.28,711.19,274,705.74,272.69,700.29Zm-15.15-7.76h13.3c-2-8.4-4.15-16.81-6.28-25h-.74C261.7,675.81,259.58,684.13,257.54,692.53Z" transform="translate(-52.3 -26.24)"/><path class="cls-2" d="M66.57,484c-7.39-.64-9.67.24-9.67,1.64,0,2.68,10.67,3.84,10.67,8.84,0,3.44-3.68,6.52-15.15,6l.16-3.8c7.92.52,10.36-.4,10.36-2,0-2.84-10.64-3.56-10.64-8.56,0-3.44,3.68-6.72,14.11-6Z" transform="translate(-52.3 -26.24)"/><path class="cls-2" d="M73,490.64c0-6.12,4.48-10.84,9.71-10.84,5.6,0,8.28,4.4,7.56,11.32l-12.83.36c.48,4,3.48,5.32,12.27,5.52l-.44,3.72C76.38,500.84,73,497.12,73,490.64Zm4.4-1.8c2.12-.08,6.15-.2,8.63-.28-.12-3.16-1.36-5.12-4.11-5.12S77.58,485.12,77.38,488.84Z" transform="translate(-52.3 -26.24)"/><path class="cls-2" d="M99.33,493.6v-9.88H95.26l.4-3.4h3.67V475l4.4-.4v5.76h7.52v3.4h-7.52v9.2c0,3.12,1.88,3.84,8,4l-.48,3.68C102.25,500.72,99.33,498.72,99.33,493.6Z" transform="translate(-52.3 -26.24)"/><path class="cls-2" d="M133.65,500.4c-12.8,1-16.51-4.68-16.51-12.2,0-6.92,4.11-12.88,16.43-13.12l.24,4.4c-10.2-.2-11.92,2.72-11.92,8.12,0,6.52,2.68,9.36,12.16,8.88Z" transform="translate(-52.3 -26.24)"/><path class="cls-2" d="M151.57,498a9.16,9.16,0,0,1-6.52,2.8c-3.56,0-6-2-6-5.2,0-4,3.76-7.2,12.16-6.84-.24-3.84-2.44-4.76-11-5l.44-3.76c12,.2,15,2.68,15,10.44,0,3.88.16,7,.36,9.8l-4.08.2C151.89,500.2,151.69,498.92,151.57,498Zm-.2-2.2c-.08-1.16-.08-2.48-.12-4.12-6.16-.64-7.8.68-7.8,2.88,0,1.76,1.32,2.8,3.36,2.8A8.34,8.34,0,0,0,151.37,495.76Z" transform="translate(-52.3 -26.24)"/><path class="cls-2" d="M161.33,500.24v-3.36h4.84c-.08-5.4-.12-9.56-.2-13.08l-4.72-.32.36-3.16h8.24c0,.2.28,2.44.36,3.44a13.09,13.09,0,0,1,8.4-4.2l.2,4.72a22.2,22.2,0,0,0-8.44,2c.08,3,.12,6.36.2,10.6h6l-.36,3.36Z" transform="translate(-52.3 -26.24)"/><path class="cls-2" d="M187.33,493.6v-9.88h-4.08l.4-3.4h3.68V475l4.4-.4v5.76h7.52v3.4h-7.52v9.2c0,3.12,1.88,3.84,8,4l-.48,3.68C190.25,500.72,187.33,498.72,187.33,493.6Z" transform="translate(-52.3 -26.24)"/><path class="cls-3" d="M221.65,473.72c-7.92,6.4-10.48,11.16-10.48,16s2.68,9.8,10.36,16l-3.08,2.76c-8.4-7.19-11.68-12.91-11.68-18.59,0-5.84,3.36-11.68,11.88-18.92Z" transform="translate(-52.3 -26.24)"/><path class="cls-3" d="M227.73,505.83c7.92-6.35,10.48-11.15,10.48-16s-2.64-9.8-10.36-16l3.08-2.76c8.4,7.2,11.72,12.92,11.72,18.6s-3.36,11.68-11.88,18.91Z" transform="translate(-52.3 -26.24)"/><path class="cls-4" d="M367.85,645.5c0-2.21,2.55-3.45,2.55-4.68,0-1-1.32-1.73-4.06-2l.08-2.18c3.22-.34,4.17-.81,4.17-1.57,0-1.15-2.77-2.32-2.8-4.45s2.24-4.06,8.82-6.13l1,2.52c-4.67,1.28-6.8,2.26-6.8,3.38s2.58,2.64,2.58,4.2c0,1-.87,2.22-3.17,2.92,2.3.61,3.17,1.73,3.17,2.83,0,1.76-2.41,2.91-2.41,4.39s2.1,2.41,6.58,3.75l-1,2.49C370,648.91,367.85,647.63,367.85,645.5Z" transform="translate(-52.3 -26.24)"/><path class="cls-2" d="M402,672.63l-1.65.06v6h-3.11V659l3.11-.28v11.71l1.65,0a53.29,53.29,0,0,0,3.89-5.8l3.19.25c-1.37,2.16-2.85,4.34-4.45,6.42l4.85,7.16-3.34.4Z" transform="translate(-52.3 -26.24)"/><path class="cls-2" d="M411.78,671.93c0-4.28,3.14-7.59,6.81-7.59,3.92,0,5.79,3.08,5.29,7.93l-9,.25c.34,2.8,2.44,3.72,8.6,3.86l-.31,2.61C414.16,679.07,411.78,676.47,411.78,671.93Zm3.08-1.26c1.49-.06,4.31-.14,6.05-.2-.08-2.21-1-3.58-2.88-3.58S415,668.07,414.86,670.67Z" transform="translate(-52.3 -26.24)"/><path class="cls-2" d="M427.32,680.81c3.3-.48,4.17-.79,5-2.66l-.53-.2c-1.31-2.94-4.2-10.36-5.26-13.13l3.16-.23c1.15,3.08,2.63,7.28,3.92,10.36h.28c.87-2.68,2.78-9.32,3.14-10.24h3c-1,3.16-2.38,7.36-3.92,11.5-2,5.63-3.5,6.95-8.51,7.4Z" transform="translate(-52.3 -26.24)"/><path class="cls-4" d="M446.42,678.65l.14-3.92h4.28l-.14,3.92Zm.25-9,.05-3.92H451l-.06,3.92Z" transform="translate(-52.3 -26.24)"/><path class="cls-4" d="M481.72,668.09l-4,.23c-1.29-3.17.31-6.81,2.77-9l1.65.48A8.09,8.09,0,0,0,481.72,668.09Z" transform="translate(-52.3 -26.24)"/><path class="cls-4" d="M500.12,664.51l.19,2.94c-7-.22-8,1.37-8,4.06,0,3.58,2,5,8.23,4.68l-.31,2.57c-8.71.73-11-2.55-11-6.86C489.2,668,491.77,664.54,500.12,664.51Z" transform="translate(-52.3 -26.24)"/><path class="cls-4" d="M513,677.05a6.42,6.42,0,0,1-4.57,2c-2.49,0-4.2-1.37-4.2-3.64,0-2.8,2.64-5,8.52-4.78-.17-2.69-1.71-3.34-7.7-3.53l.3-2.63c8.4.14,10.5,1.87,10.5,7.3,0,2.72.12,4.93.26,6.86l-2.86.14C513.22,678.62,513.08,677.73,513,677.05Zm-.14-1.54c-.06-.81-.06-1.73-.09-2.88-4.31-.45-5.46.48-5.46,2,0,1.23.93,2,2.36,2A5.79,5.79,0,0,0,512.86,675.51Z" transform="translate(-52.3 -26.24)"/><path class="cls-4" d="M519.83,678.65V676.3h3.39c-.06-3.78-.09-6.69-.14-9.16l-3.31-.22.26-2.21h5.76c0,.14.2,1.7.26,2.4a9.19,9.19,0,0,1,5.88-2.94l.14,3.31a15.47,15.47,0,0,0-5.91,1.4c.05,2.1.08,4.45.14,7.42h4.23l-.26,2.35Z" transform="translate(-52.3 -26.24)"/><path class="cls-4" d="M538,674v-6.91h-2.86l.28-2.38H538V661l3.08-.28v4h5.26v2.38h-5.26v6.44c0,2.18,1.31,2.68,5.57,2.77l-.34,2.57C540.07,679,538,677.59,538,674Z" transform="translate(-52.3 -26.24)"/><path class="cls-4" d="M554.6,659.92l3.95-.23c1.29,3.17-.31,6.81-2.74,9l-1.68-.5C555.72,666.19,556,662.89,554.6,659.92Z" transform="translate(-52.3 -26.24)"/><path class="cls-4" d="M569.61,674.67l4-.19c1.26,3.13-.37,6.77-2.8,9l-1.66-.48A8.08,8.08,0,0,0,569.61,674.67Z" transform="translate(-52.3 -26.24)"/><path class="cls-2" d="M405.09,710.93a5.46,5.46,0,0,1-3.84,1.68c-2.94,0-5.09-2.43-5.09-6.58a7.66,7.66,0,0,1,8-8.09,4.72,4.72,0,0,1,.65,0v-5.35l3.11-.28v5.94c0,6.52.05,10.81.19,13.89l-2.88.16Zm-.17-1.73c-.05-2.16-.08-4.87-.08-8.23a6.48,6.48,0,0,0-2-.37c-2.13,0-3.61,1.57-3.61,4.65,0,3.3,1.37,4.82,3.3,4.82A3.75,3.75,0,0,0,404.92,709.2Z" transform="translate(-52.3 -26.24)"/><path class="cls-2" d="M411.78,705.53c0-4.28,3.14-7.59,6.81-7.59,3.92,0,5.79,3.08,5.29,7.93l-9,.25c.34,2.8,2.44,3.72,8.6,3.86l-.31,2.61C414.16,712.67,411.78,710.07,411.78,705.53Zm3.08-1.26c1.49-.06,4.31-.14,6.05-.2-.08-2.21-1-3.58-2.88-3.58S415,701.67,414.86,704.27Z" transform="translate(-52.3 -26.24)"/><path class="cls-2" d="M438.49,712.25H427.71v-2.32h3.53v-8.66h-3.7l.29-2.38h3.41v0c0-3.59,2-6.28,8.54-6.61l.2,3c-5.1.17-5.63.62-5.63,3.11v.5h4.7v2.38h-4.7v8.66h4.42Z" transform="translate(-52.3 -26.24)"/><path class="cls-2" d="M451.4,710.65a6.39,6.39,0,0,1-4.56,2c-2.5,0-4.2-1.37-4.2-3.64,0-2.8,2.63-5,8.51-4.78-.17-2.69-1.71-3.34-7.7-3.53l.31-2.63c8.4.14,10.5,1.87,10.5,7.3,0,2.72.11,4.93.25,6.86l-2.86.14C451.62,712.22,451.48,711.33,451.4,710.65Zm-.14-1.54c-.06-.81-.06-1.73-.08-2.88-4.32-.45-5.46.48-5.46,2,0,1.23.92,2,2.35,2A5.79,5.79,0,0,0,451.26,709.11Z" transform="translate(-52.3 -26.24)"/><path class="cls-2" d="M466.8,710.74a6.59,6.59,0,0,1-4.45,1.87c-2.44,0-4-1.4-4-4.81v-9.38l3.11-.2v8.49c0,2.46.9,3.24,2.32,3.24a4.79,4.79,0,0,0,2.8-1c-.05-2.57-.08-6.19-.08-10.69h3.11c0,6.27.05,10.66.22,13.86l-2.88.14Z" transform="translate(-52.3 -26.24)"/><path class="cls-2" d="M473.72,712.25V709.9H478V695.11l-4.18-.22.29-2.21h7V709.9h4.32l-.26,2.35Z" transform="translate(-52.3 -26.24)"/><path class="cls-2" d="M491.83,707.6v-6.91H489l.28-2.38h2.58v-3.76l3.08-.28v4h5.26v2.38h-5.26v6.44c0,2.18,1.32,2.68,5.57,2.77l-.33,2.57C493.87,712.59,491.83,711.19,491.83,707.6Z" transform="translate(-52.3 -26.24)"/><path class="cls-4" d="M508,712.25l.14-3.92h4.29l-.14,3.92Zm.26-9,.05-3.92h4.26l-.06,3.92Z" transform="translate(-52.3 -26.24)"/><path class="cls-4" d="M537,692.71h9.41v2.49H540v19.6h6.58l-.28,2.46H537Z" transform="translate(-52.3 -26.24)"/><path class="cls-4" d="M557.63,714.77V695.2h-6.39v-2.52h9.36v24.58h-9.47l.17-2.49Z" transform="translate(-52.3 -26.24)"/><path class="cls-4" d="M365.83,749.24c4.68-1.29,6.78-2.27,6.78-3.36,0-1.29-2.55-2.63-2.55-4.23,0-1,.87-2.18,3.19-2.91-2.32-.62-3.19-1.71-3.19-2.8,0-1.77,2.41-2.91,2.41-4.4s-2.1-2.43-6.58-3.78l1-2.46c6.52,2.07,8.65,3.36,8.65,5.49s-2.55,3.44-2.55,4.7c0,1,1.29,1.71,4.06,1.93l-.11,2.21c-3.19.31-4.15.82-4.15,1.57,0,1.15,2.78,2.3,2.78,4.43s-2.22,4.06-8.8,6.16Z" transform="translate(-52.3 -26.24)"/><path class="cls-1" d="M826.37,631.72a60.33,60.33,0,1,1-60.32,60.33,60.39,60.39,0,0,1,60.32-60.33m0-3a63.33,63.33,0,1,0,63.33,63.33,63.32,63.32,0,0,0-63.33-63.33Z" transform="translate(-52.3 -26.24)"/><path class="cls-4" d="M928.85,645.5c0-2.21,2.55-3.45,2.55-4.68,0-1-1.32-1.73-4.06-2l.08-2.18c3.22-.34,4.17-.81,4.17-1.57,0-1.15-2.77-2.32-2.8-4.45s2.25-4.06,8.83-6.13l1,2.52c-4.67,1.28-6.8,2.26-6.8,3.38s2.58,2.64,2.58,4.2c0,1-.87,2.22-3.17,2.92,2.3.61,3.17,1.73,3.17,2.83,0,1.76-2.41,2.91-2.41,4.39s2.1,2.41,6.58,3.75l-1,2.49C931,648.91,928.85,647.63,928.85,645.5Z" transform="translate(-52.3 -26.24)"/><path class="cls-2" d="M963,672.63l-1.65.06v6h-3.11V659l3.11-.28v11.71l1.65,0a53.29,53.29,0,0,0,3.89-5.8l3.19.25c-1.37,2.16-2.85,4.34-4.45,6.42l4.85,7.16-3.34.4Z" transform="translate(-52.3 -26.24)"/><path class="cls-2" d="M972.78,671.93c0-4.28,3.14-7.59,6.81-7.59,3.92,0,5.79,3.08,5.29,7.93l-9,.25c.34,2.8,2.44,3.72,8.6,3.86l-.31,2.61C975.16,679.07,972.78,676.47,972.78,671.93Zm3.08-1.26c1.49-.06,4.31-.14,6-.2-.08-2.21-.95-3.58-2.88-3.58S976,668.07,975.86,670.67Z" transform="translate(-52.3 -26.24)"/><path class="cls-2" d="M988.32,680.81c3.3-.48,4.17-.79,5-2.66l-.53-.2c-1.31-2.94-4.2-10.36-5.26-13.13l3.16-.23c1.15,3.08,2.63,7.28,3.92,10.36h.28c.87-2.68,2.77-9.32,3.14-10.24h3c-1,3.16-2.38,7.36-3.92,11.5-2,5.63-3.5,6.95-8.51,7.4Z" transform="translate(-52.3 -26.24)"/><path class="cls-4" d="M1007.42,678.65l.14-3.92h4.28l-.14,3.92Zm.25-9,.05-3.92H1012l-.06,3.92Z" transform="translate(-52.3 -26.24)"/><path class="cls-4" d="M1042.72,668.09l-4,.23c-1.29-3.17.3-6.81,2.77-9l1.65.48A8.09,8.09,0,0,0,1042.72,668.09Z" transform="translate(-52.3 -26.24)"/><path class="cls-4" d="M1052.83,674v-6.91H1050l.28-2.38h2.58V661l3.08-.28v4h5.26v2.38h-5.26v6.44c0,2.18,1.32,2.68,5.57,2.77l-.33,2.57C1054.88,679,1052.83,677.59,1052.83,674Z" transform="translate(-52.3 -26.24)"/><path class="cls-4" d="M1064.93,672c0-4.53,3.1-7.72,6.8-7.72,3.5,0,5.91,2.54,5.91,7.08s-3.08,7.7-6.81,7.7C1067.39,679.07,1064.93,676.52,1064.93,672Zm9.57-.08c0-3.36-1.29-5.1-3.3-5.1s-3.11,1.54-3.11,4.6c0,3.38,1.29,5.12,3.3,5.12S1074.5,675,1074.5,671.93Z" transform="translate(-52.3 -26.24)"/><path class="cls-4" d="M1083.63,674v-6.91h-2.86l.28-2.38h2.58V661l3.08-.28v4H1092v2.38h-5.26v6.44c0,2.18,1.32,2.68,5.57,2.77l-.33,2.57C1085.67,679,1083.63,677.59,1083.63,674Z" transform="translate(-52.3 -26.24)"/><path class="cls-4" d="M1104.8,677.05a6.42,6.42,0,0,1-4.57,2c-2.49,0-4.2-1.37-4.2-3.64,0-2.8,2.64-5,8.51-4.78-.16-2.69-1.7-3.34-7.7-3.53l.31-2.63c8.4.14,10.5,1.87,10.5,7.3,0,2.72.11,4.93.25,6.86l-2.85.14C1105,678.62,1104.88,677.73,1104.8,677.05Zm-.14-1.54c-.06-.81-.06-1.73-.09-2.88-4.31-.45-5.46.48-5.46,2,0,1.23.93,2,2.35,2A5.8,5.8,0,0,0,1104.66,675.51Z" transform="translate(-52.3 -26.24)"/><path class="cls-4" d="M1111.71,678.65V676.3H1116V661.51l-4.17-.22.28-2.21h7V676.3h4.31l-.25,2.35Z" transform="translate(-52.3 -26.24)"/><path class="cls-4" d="M1135.43,673.83h-5.15c-.4,1.6-.76,3.22-1.15,4.82h-3.19c1.48-5.77,3-11.59,4.73-17.39h4.45c1.71,5.8,3.25,11.51,4.73,17.28l-3.25.22C1136.21,677.14,1135.82,675.49,1135.43,673.83Zm-4.59-2.35h4c-.62-2.55-1.26-5.09-1.91-7.59h-.22C1132.1,666.41,1131.45,668.93,1130.84,671.48Z" transform="translate(-52.3 -26.24)"/><path class="cls-4" d="M1144.7,667.73c0,2.6.08,6.33.08,10.92h-2.89c0-6.27,0-10.67-.11-13.83l2.66-.17.11,1.2a4,4,0,0,1,2.89-1.51,1.93,1.93,0,0,1,2,1.51,4,4,0,0,1,3-1.51c1.6,0,2.38,1.12,2.38,3.19v11.12h-2.88v-10c0-1.21-.34-1.63-1.06-1.63a1.93,1.93,0,0,0-1.38.65v11h-2.21v-10c0-1.18-.31-1.6-1-1.6A2.28,2.28,0,0,0,1144.7,667.73Z" transform="translate(-52.3 -26.24)"/><path class="cls-4" d="M1157.32,672c0-4.53,3.11-7.72,6.81-7.72,3.5,0,5.91,2.54,5.91,7.08s-3.08,7.7-6.81,7.7C1159.79,679.07,1157.32,676.52,1157.32,672Zm9.58-.08c0-3.36-1.29-5.1-3.31-5.1-1.87,0-3.1,1.54-3.1,4.6,0,3.38,1.28,5.12,3.3,5.12S1166.9,675,1166.9,671.93Z" transform="translate(-52.3 -26.24)"/><path class="cls-4" d="M1181.79,677.14a6.59,6.59,0,0,1-4.45,1.87c-2.43,0-4-1.4-4-4.81v-9.38l3.1-.2v8.49c0,2.46.9,3.24,2.33,3.24a4.82,4.82,0,0,0,2.8-1c-.06-2.57-.09-6.19-.09-10.69h3.11c0,6.27.06,10.66.23,13.86l-2.89.14Z" transform="translate(-52.3 -26.24)"/><path class="cls-4" d="M1192,667.93c0,2.6.11,6.24.11,10.72h-3.14c0-6.27,0-10.67-.22-13.83l2.88-.17.17,1.6a6.56,6.56,0,0,1,4.48-1.91c2.44,0,4,1.43,4,4.82v9.49h-3.11v-8.4c0-2.46-.93-3.25-2.35-3.25A5.09,5.09,0,0,0,1192,667.93Z" transform="translate(-52.3 -26.24)"/><path class="cls-4" d="M1206.82,674v-6.91H1204l.28-2.38h2.57V661l3.08-.28v4h5.27v2.38h-5.27v6.44c0,2.18,1.32,2.68,5.58,2.77l-.34,2.57C1208.87,679,1206.82,677.59,1206.82,674Z" transform="translate(-52.3 -26.24)"/><path class="cls-4" d="M1223.4,659.92l3.95-.23c1.29,3.17-.31,6.81-2.75,9l-1.68-.5C1224.52,666.19,1224.8,662.89,1223.4,659.92Z" transform="translate(-52.3 -26.24)"/><path class="cls-4" d="M1238.41,674.67l4-.19c1.26,3.13-.36,6.77-2.8,9L1238,683A8.08,8.08,0,0,0,1238.41,674.67Z" transform="translate(-52.3 -26.24)"/><path class="cls-4" d="M926.83,715.64c4.68-1.29,6.78-2.27,6.78-3.36,0-1.29-2.55-2.63-2.55-4.23,0-1,.87-2.18,3.19-2.91-2.32-.62-3.19-1.71-3.19-2.8,0-1.77,2.41-2.91,2.41-4.4s-2.1-2.43-6.58-3.78l1-2.46c6.52,2.07,8.65,3.36,8.65,5.49s-2.55,3.44-2.55,4.7c0,1,1.29,1.71,4.06,1.93L938,706c-3.19.31-4.15.82-4.15,1.57,0,1.15,2.78,2.3,2.78,4.43s-2.22,4.06-8.8,6.16Z" transform="translate(-52.3 -26.24)"/><path class="cls-1" d="M836.42,701.51c0-9.4-26.91-12.76-26.91-26.07,0-8.66,9.87-17.78,33.89-16.48l.56,9.59c-18.71-1.3-23.37,1.21-23.37,5.4,0,8.66,26.91,12.48,26.91,26.26,0,9.12-10,18.71-37.8,17.6v-9.59C829.34,709.7,836.42,706.35,836.42,701.51Z" transform="translate(-52.3 -26.24)"/><path class="cls-5" d="M605.43,648.86S756.7,557,755.7,293.86" transform="translate(-52.3 -26.24)"/><path class="cls-5" d="M183.43,300.86s-71,28-70.9,141.72" transform="translate(-52.3 -26.24)"/><polyline class="cls-5" points="43.43 403.39 60.4 418.04 77.37 403.39"/><polyline class="cls-5" points="722.36 283.39 703.31 267.12 683.17 284.66"/><path class="cls-5" d="M105.43,530.86s-31,175,69.71,161.59" transform="translate(-52.3 -26.24)"/><polyline class="cls-5" points="107.46 684.99 125.09 665.83 108.8 645.08"/><line class="cls-6" x1="551.39" y1="661.44" x2="682.56" y2="661.44"/><path class="cls-6" d="M1271.71,669.94s138.72-215.08-30-391.14" transform="translate(-52.3 -26.24)"/><polyline class="cls-6" points="669.03 645.36 686 662.33 669.03 679.3"/><polyline class="cls-6" points="1210.63 251.12 1186.82 250.71 1187.95 271.37"/><path class="cls-3" d="M554.49,33.28l-11.64,9.36v.44l11.68,9.36L552,55.64,538.85,44.72V41l13.24-10.88Z" transform="translate(-52.3 -26.24)"/><path class="cls-1" d="M575.53,38.4c-7.4-.64-9.68.24-9.68,1.64,0,2.68,10.68,3.84,10.68,8.84,0,3.44-3.68,6.52-15.16,6l.16-3.8c7.92.52,10.36-.4,10.36-2,0-2.84-10.64-3.56-10.64-8.56,0-3.44,3.68-6.72,14.12-6Z" transform="translate(-52.3 -26.24)"/><path class="cls-1" d="M587.17,39.24V54.68h-4.44v-28l4.44-.4V36.56a9.14,9.14,0,0,1,6-2.32c3.48,0,5.72,2,5.72,6.88V54.68h-4.44v-12c0-3.52-1.28-4.64-3.36-4.64A7.31,7.31,0,0,0,587.17,39.24Z" transform="translate(-52.3 -26.24)"/><path class="cls-1" d="M603.57,45.2c0-6.48,4.44-11,9.72-11,5,0,8.44,3.64,8.44,10.12,0,6.64-4.4,11-9.72,11C607.09,55.28,603.57,51.64,603.57,45.2Zm13.68-.12c0-4.8-1.84-7.28-4.72-7.28-2.68,0-4.44,2.2-4.44,6.56,0,4.84,1.84,7.32,4.72,7.32C615.49,51.68,617.25,49.48,617.25,45.08Z" transform="translate(-52.3 -26.24)"/><path class="cls-1" d="M626.85,61.64V54.8c0-10.28,0-15.92-.24-19.88l4.08-.24.2,2a7.94,7.94,0,0,1,5.56-2.48c4.16,0,7.24,3.68,7.24,9.48,0,7.28-5.12,11.48-11.36,11.48a9,9,0,0,1-1,0v6.08ZM639.29,44.8c0-4.6-2-6.92-4.64-6.92a6,6,0,0,0-3.52,1.28c0,2.84.12,6.52.16,11.72a7.14,7.14,0,0,0,2.6.48C636.93,51.36,639.29,49.2,639.29,44.8Z" transform="translate(-52.3 -26.24)"/><path class="cls-1" d="M662.85,44.68H650.37v-3.8h12.8Z" transform="translate(-52.3 -26.24)"/><path class="cls-1" d="M682.53,52.4A9.16,9.16,0,0,1,676,55.2c-3.56,0-6-2-6-5.2,0-4,3.76-7.2,12.16-6.84-.24-3.84-2.44-4.76-11-5l.44-3.76c12,.2,15,2.68,15,10.44,0,3.88.17,7,.36,9.8l-4.07.2C682.85,54.64,682.65,53.36,682.53,52.4Zm-.2-2.2c-.08-1.16-.08-2.48-.12-4.12-6.16-.64-7.8.68-7.8,2.88,0,1.76,1.32,2.8,3.36,2.8A8.34,8.34,0,0,0,682.33,50.2Z" transform="translate(-52.3 -26.24)"/><path class="cls-1" d="M692.85,61.64V54.8c0-10.28,0-15.92-.24-19.88l4.08-.24.2,2a7.94,7.94,0,0,1,5.56-2.48c4.15,0,7.24,3.68,7.24,9.48,0,7.28-5.12,11.48-11.36,11.48a9,9,0,0,1-1,0v6.08ZM705.29,44.8c0-4.6-2-6.92-4.64-6.92a6,6,0,0,0-3.52,1.28c0,2.84.12,6.52.16,11.72a7.14,7.14,0,0,0,2.6.48C702.93,51.36,705.29,49.2,705.29,44.8Z" transform="translate(-52.3 -26.24)"/><path class="cls-1" d="M714.85,61.64V54.8c0-10.28,0-15.92-.24-19.88l4.08-.24.2,2a7.94,7.94,0,0,1,5.56-2.48c4.15,0,7.23,3.68,7.23,9.48,0,7.28-5.11,11.48-11.35,11.48a9,9,0,0,1-1,0v6.08ZM727.29,44.8c0-4.6-2-6.92-4.64-6.92a6,6,0,0,0-3.52,1.28c0,2.84.12,6.52.16,11.72a7.14,7.14,0,0,0,2.6.48C724.92,51.36,727.29,49.2,727.29,44.8Z" transform="translate(-52.3 -26.24)"/><path class="cls-3" d="M736.85,52.52l11.72-9.44v-.44L737,33.36l2.48-3.2L752.56,41v3.72L739.25,55.64Z" transform="translate(-52.3 -26.24)"/><path class="cls-3" d="M718.87,135.28l-11.64,9.36v.44l11.68,9.36-2.52,3.2-13.16-10.92V143l13.24-10.88Z" transform="translate(-52.3 -26.24)"/><path class="cls-1" d="M739.91,140.4c-7.4-.64-9.68.24-9.68,1.64,0,2.68,10.68,3.84,10.68,8.84,0,3.44-3.68,6.52-15.16,6l.16-3.8c7.92.52,10.36-.4,10.36-2,0-2.84-10.64-3.56-10.64-8.56,0-3.44,3.68-6.72,14.12-6Z" transform="translate(-52.3 -26.24)"/><path class="cls-1" d="M751.55,141.24v15.44h-4.44v-28l4.44-.4v10.32a9.14,9.14,0,0,1,6-2.32c3.48,0,5.72,2,5.72,6.88v13.56h-4.44v-12c0-3.52-1.28-4.64-3.36-4.64A7.31,7.31,0,0,0,751.55,141.24Z" transform="translate(-52.3 -26.24)"/><path class="cls-1" d="M768,147.2c0-6.48,4.44-11,9.72-11,5,0,8.44,3.64,8.44,10.12,0,6.64-4.4,11-9.72,11C771.47,157.28,768,153.64,768,147.2Zm13.68-.12c0-4.8-1.84-7.28-4.72-7.28-2.68,0-4.44,2.2-4.44,6.56,0,4.84,1.84,7.32,4.72,7.32C779.87,153.68,781.63,151.48,781.63,147.08Z" transform="translate(-52.3 -26.24)"/><path class="cls-1" d="M791.23,163.64V156.8c0-10.28,0-15.92-.24-19.88l4.08-.24.2,2a7.94,7.94,0,0,1,5.56-2.48c4.16,0,7.24,3.68,7.24,9.48,0,7.28-5.12,11.48-11.36,11.48a9,9,0,0,1-1,0v6.08Zm12.44-16.84c0-4.6-2-6.92-4.64-6.92a6,6,0,0,0-3.52,1.28c0,2.84.12,6.52.16,11.72a7.14,7.14,0,0,0,2.6.48C801.31,153.36,803.67,151.2,803.67,146.8Z" transform="translate(-52.3 -26.24)"/><path class="cls-1" d="M813.23,163.64V156.8c0-10.28,0-15.92-.24-19.88l4.08-.24.2,2a7.94,7.94,0,0,1,5.56-2.48c4.16,0,7.24,3.68,7.24,9.48,0,7.28-5.12,11.48-11.36,11.48a9,9,0,0,1-1,0v6.08Zm12.44-16.84c0-4.6-2-6.92-4.64-6.92a6,6,0,0,0-3.52,1.28c0,2.84.12,6.52.16,11.72a7.14,7.14,0,0,0,2.6.48C823.31,153.36,825.67,151.2,825.67,146.8Z" transform="translate(-52.3 -26.24)"/><path class="cls-1" d="M834.75,156.68v-3.36h6.92V140.24l-7-.32.36-3.16h11.12v16.56h6.92l-.36,3.36Zm6.68-22.92.28-5.6h4.68l-.36,5.6Z" transform="translate(-52.3 -26.24)"/><path class="cls-1" d="M861.43,141.36c.08,3.72.16,8.92.16,15.32h-4.48c0-9-.08-15.24-.32-19.76l4.12-.24.24,2.28a9.37,9.37,0,0,1,6.4-2.72c3.48,0,5.72,2,5.72,6.88v13.56h-4.44v-12c0-3.52-1.32-4.64-3.36-4.64A7.26,7.26,0,0,0,861.43,141.36Z" transform="translate(-52.3 -26.24)"/><path class="cls-1" d="M880.51,159.68c8.84-.72,9.88-1.4,10-6.44a8.52,8.52,0,0,1-5.12,1.68c-4.16,0-7.32-3.16-7.32-8.28,0-6.32,4.92-10.36,10.8-10.36a20.88,20.88,0,0,1,6,1c.08,2.2.12,10.8.12,14,0,7.28-2.72,11.84-14.08,12.4Zm10-9.08v-10a11.88,11.88,0,0,0-3.24-.52c-2.84,0-4.8,1.88-4.8,5.56,0,4,2,5.84,4.64,5.84A7.9,7.9,0,0,0,890.51,150.6Z" transform="translate(-52.3 -26.24)"/><path class="cls-1" d="M915.23,146.68H902.75v-3.8h12.8Z" transform="translate(-52.3 -26.24)"/><path class="cls-1" d="M938.51,136.48l.28,4.2c-10-.32-11.48,2-11.48,5.8,0,5.12,2.8,7.2,11.76,6.68l-.44,3.68c-12.44,1-15.72-3.64-15.72-9.8C922.91,141.48,926.59,136.52,938.51,136.48Z" transform="translate(-52.3 -26.24)"/><path class="cls-1" d="M956.91,154.4a9.16,9.16,0,0,1-6.52,2.8c-3.56,0-6-2-6-5.2,0-4,3.76-7.2,12.16-6.84-.24-3.84-2.44-4.76-11-5l.44-3.76c12,.2,15,2.68,15,10.44,0,3.88.16,7,.36,9.8l-4.08.2C957.23,156.64,957,155.36,956.91,154.4Zm-.2-2.2c-.08-1.16-.08-2.48-.12-4.12-6.16-.64-7.8.68-7.8,2.88,0,1.76,1.32,2.8,3.36,2.8A8.34,8.34,0,0,0,956.71,152.2Z" transform="translate(-52.3 -26.24)"/><path class="cls-1" d="M966.67,156.68v-3.36h4.84c-.08-5.4-.12-9.56-.2-13.08l-4.72-.32.36-3.16h8.24c0,.2.28,2.44.36,3.44A13.09,13.09,0,0,1,984,136l.2,4.72a22.2,22.2,0,0,0-8.44,2c.08,3,.12,6.36.2,10.6h6l-.36,3.36Z" transform="translate(-52.3 -26.24)"/><path class="cls-1" d="M992.67,150v-9.88h-4.08l.4-3.4h3.68V131.4l4.4-.4v5.76h7.52v3.4h-7.52v9.2c0,3.12,1.88,3.84,8,4l-.48,3.68C995.59,157.16,992.67,155.16,992.67,150Z" transform="translate(-52.3 -26.24)"/><path class="cls-3" d="M1011.23,154.52l11.72-9.44v-.44l-11.6-9.28,2.48-3.2L1027,143v3.72l-13.32,10.92Z" transform="translate(-52.3 -26.24)"/><path class="cls-3" d="M606.25,237.28l-11.64,9.36v.44l11.68,9.36-2.52,3.2-13.16-10.92V245l13.24-10.88Z" transform="translate(-52.3 -26.24)"/><path class="cls-1" d="M627.89,238.48l.28,4.2c-10-.32-11.48,2-11.48,5.8,0,5.12,2.8,7.2,11.76,6.68l-.44,3.68c-12.44,1-15.72-3.64-15.72-9.8C612.29,243.48,616,238.52,627.89,238.48Z" transform="translate(-52.3 -26.24)"/><path class="cls-1" d="M646.29,256.4a9.16,9.16,0,0,1-6.52,2.8c-3.56,0-6-2-6-5.2,0-4,3.76-7.2,12.16-6.84-.24-3.84-2.44-4.76-11-5l.44-3.76c12,.2,15,2.68,15,10.44,0,3.88.16,7,.36,9.8l-4.08.2C646.61,258.64,646.41,257.36,646.29,256.4Zm-.2-2.2c-.08-1.16-.08-2.48-.12-4.12-6.16-.64-7.8.68-7.8,2.88,0,1.76,1.32,2.8,3.36,2.8A8.34,8.34,0,0,0,646.09,254.2Z" transform="translate(-52.3 -26.24)"/><path class="cls-1" d="M656.05,258.68v-3.36h4.84c-.08-5.4-.12-9.56-.2-13.08l-4.72-.32.36-3.16h8.24c0,.2.28,2.44.36,3.44a13.09,13.09,0,0,1,8.4-4.2l.2,4.72a22.2,22.2,0,0,0-8.44,2c.08,3,.12,6.36.2,10.6h6l-.36,3.36Z" transform="translate(-52.3 -26.24)"/><path class="cls-1" d="M682.05,252v-9.88H678l.4-3.4h3.68V233.4l4.4-.4v5.76H694v3.4h-7.52v9.2c0,3.12,1.88,3.84,8,4l-.48,3.68C685,259.16,682.05,257.16,682.05,252Z" transform="translate(-52.3 -26.24)"/><path class="cls-1" d="M714.61,248.68H702.13v-3.8h12.8Z" transform="translate(-52.3 -26.24)"/><path class="cls-1" d="M722.13,258.68v-3.36h6.92V242.24l-7-.32.36-3.16h11.12v16.56h6.92l-.36,3.36Zm6.68-22.92.28-5.6h4.68l-.36,5.6Z" transform="translate(-52.3 -26.24)"/><path class="cls-1" d="M748.05,252v-9.88H744l.4-3.4h3.68V233.4l4.4-.4v5.76H760v3.4h-7.51v9.2c0,3.12,1.88,3.84,8,4l-.49,3.68C751,259.16,748.05,257.16,748.05,252Z" transform="translate(-52.3 -26.24)"/><path class="cls-1" d="M765.69,249.08c0-6.12,4.48-10.84,9.72-10.84,5.59,0,8.27,4.4,7.55,11.32l-12.83.36c.48,4,3.48,5.32,12.28,5.52l-.45,3.72C769.09,259.28,765.69,255.56,765.69,249.08Zm4.4-1.8c2.12-.08,6.16-.2,8.64-.28-.12-3.16-1.36-5.12-4.12-5.12S770.29,243.56,770.09,247.28Z" transform="translate(-52.3 -26.24)"/><path class="cls-1" d="M791.29,243.08c.08,3.72.12,9,.12,15.6h-4.12c0-9,0-15.24-.16-19.76l3.8-.24.16,1.72a5.7,5.7,0,0,1,4.12-2.16,2.76,2.76,0,0,1,2.88,2.16,5.74,5.74,0,0,1,4.24-2.16c2.28,0,3.39,1.6,3.39,4.56v15.88h-4.11V244.36c0-1.72-.48-2.32-1.52-2.32a2.74,2.74,0,0,0-2,.92v15.72H795V244.32c0-1.68-.44-2.28-1.44-2.28A3.31,3.31,0,0,0,791.29,243.08Z" transform="translate(-52.3 -26.24)"/><path class="cls-1" d="M825.29,242.4c-7.4-.64-9.68.24-9.68,1.64,0,2.68,10.68,3.84,10.68,8.84,0,3.44-3.68,6.52-15.16,6l.16-3.8c7.92.52,10.36-.4,10.36-2,0-2.84-10.64-3.56-10.64-8.56,0-3.44,3.68-6.72,14.11-6Z" transform="translate(-52.3 -26.24)"/><path class="cls-3" d="M832.61,256.52l11.72-9.44v-.44l-11.6-9.28,2.48-3.2L848.33,245v3.72L835,259.64Z" transform="translate(-52.3 -26.24)"/><path class="cls-3" d="M917.87,237.28l-11.64,9.36v.44l11.68,9.36-2.52,3.2-13.16-10.92V245l13.24-10.88Z" transform="translate(-52.3 -26.24)"/><path class="cls-1" d="M938.91,242.4c-7.4-.64-9.68.24-9.68,1.64,0,2.68,10.68,3.84,10.68,8.84,0,3.44-3.68,6.52-15.16,6l.16-3.8c7.92.52,10.36-.4,10.36-2,0-2.84-10.64-3.56-10.64-8.56,0-3.44,3.68-6.72,14.12-6Z" transform="translate(-52.3 -26.24)"/><path class="cls-1" d="M950.55,243.24v15.44h-4.44v-28l4.44-.4v10.32a9.14,9.14,0,0,1,6-2.32c3.48,0,5.72,2,5.72,6.88v13.56h-4.44v-12c0-3.52-1.28-4.64-3.36-4.64A7.31,7.31,0,0,0,950.55,243.24Z" transform="translate(-52.3 -26.24)"/><path class="cls-1" d="M967.75,258.68v-3.36h6.92V242.24l-7-.32.36-3.16h11.12v16.56h6.92l-.36,3.36Zm6.68-22.92.28-5.6h4.68l-.36,5.6Z" transform="translate(-52.3 -26.24)"/><path class="cls-1" d="M990.23,265.64V258.8c0-10.28,0-15.92-.24-19.88l4.08-.24.2,2a7.94,7.94,0,0,1,5.56-2.48c4.16,0,7.24,3.68,7.24,9.48,0,7.28-5.12,11.48-11.36,11.48a9,9,0,0,1-1,0v6.08Zm12.44-16.84c0-4.6-2-6.92-4.64-6.92a6,6,0,0,0-3.52,1.28c0,2.84.12,6.52.16,11.72a7.14,7.14,0,0,0,2.6.48C1000.31,255.36,1002.67,253.2,1002.67,248.8Z" transform="translate(-52.3 -26.24)"/><path class="cls-1" d="M1012.23,265.64V258.8c0-10.28,0-15.92-.24-19.88l4.08-.24.2,2a7.94,7.94,0,0,1,5.56-2.48c4.16,0,7.24,3.68,7.24,9.48,0,7.28-5.12,11.48-11.36,11.48a9,9,0,0,1-1,0v6.08Zm12.44-16.84c0-4.6-2-6.92-4.64-6.92a6,6,0,0,0-3.52,1.28c0,2.84.12,6.52.16,11.72a7.14,7.14,0,0,0,2.6.48C1022.31,255.36,1024.67,253.2,1024.67,248.8Z" transform="translate(-52.3 -26.24)"/><path class="cls-1" d="M1033.75,258.68v-3.36h6.92V242.24l-7-.32.36-3.16h11.12v16.56h6.92l-.36,3.36Zm6.68-22.92.28-5.6h4.68l-.36,5.6Z" transform="translate(-52.3 -26.24)"/><path class="cls-1" d="M1060.43,243.36c.08,3.72.16,8.92.16,15.32h-4.48c0-9-.08-15.24-.32-19.76l4.12-.24.24,2.28a9.37,9.37,0,0,1,6.4-2.72c3.48,0,5.72,2,5.72,6.88v13.56h-4.44v-12c0-3.52-1.32-4.64-3.36-4.64A7.26,7.26,0,0,0,1060.43,243.36Z" transform="translate(-52.3 -26.24)"/><path class="cls-1" d="M1079.51,261.68c8.84-.72,9.88-1.4,10-6.44a8.52,8.52,0,0,1-5.12,1.68c-4.16,0-7.32-3.16-7.32-8.28,0-6.32,4.92-10.36,10.8-10.36a20.88,20.88,0,0,1,6,1c.08,2.2.12,10.8.12,14,0,7.28-2.72,11.84-14.08,12.4Zm10-9.08v-10a11.88,11.88,0,0,0-3.24-.52c-2.84,0-4.8,1.88-4.8,5.56,0,4,2,5.84,4.64,5.84A7.9,7.9,0,0,0,1089.51,252.6Z" transform="translate(-52.3 -26.24)"/><path class="cls-1" d="M1114.23,248.68h-12.48v-3.8h12.8Z" transform="translate(-52.3 -26.24)"/><path class="cls-1" d="M1137.51,238.48l.28,4.2c-10-.32-11.48,2-11.48,5.8,0,5.12,2.8,7.2,11.76,6.68l-.44,3.68c-12.44,1-15.72-3.64-15.72-9.8C1121.91,243.48,1125.59,238.52,1137.51,238.48Z" transform="translate(-52.3 -26.24)"/><path class="cls-1" d="M1143,249.2c0-6.48,4.44-11,9.72-11,5,0,8.44,3.64,8.44,10.12,0,6.64-4.4,11-9.72,11C1146.47,259.28,1143,255.64,1143,249.2Zm13.68-.12c0-4.8-1.84-7.28-4.72-7.28-2.68,0-4.44,2.2-4.44,6.56,0,4.84,1.84,7.32,4.72,7.32C1154.87,255.68,1156.63,253.48,1156.63,249.08Z" transform="translate(-52.3 -26.24)"/><path class="cls-1" d="M1180.91,242.4c-7.4-.64-9.68.24-9.68,1.64,0,2.68,10.68,3.84,10.68,8.84,0,3.44-3.68,6.52-15.16,6l.16-3.8c7.92.52,10.36-.4,10.36-2,0-2.84-10.64-3.56-10.64-8.56,0-3.44,3.68-6.72,14.12-6Z" transform="translate(-52.3 -26.24)"/><path class="cls-1" d="M1191.67,252v-9.88h-4.08l.4-3.4h3.68V233.4l4.4-.4v5.76h7.52v3.4h-7.52v9.2c0,3.12,1.88,3.84,8,4l-.48,3.68C1194.59,259.16,1191.67,257.16,1191.67,252Z" transform="translate(-52.3 -26.24)"/><path class="cls-3" d="M1210.23,256.52l11.72-9.44v-.44l-11.6-9.28,2.48-3.2L1226,245v3.72l-13.32,10.92Z" transform="translate(-52.3 -26.24)"/><path class="cls-3" d="M297.21,135.28l-11.64,9.36v.44l11.68,9.36-2.52,3.2-13.16-10.92V143l13.24-10.88Z" transform="translate(-52.3 -26.24)"/><path class="cls-1" d="M303.57,163.64V156.8c0-10.28,0-15.92-.24-19.88l4.08-.24.2,2a7.94,7.94,0,0,1,5.56-2.48c4.16,0,7.23,3.68,7.23,9.48,0,7.28-5.11,11.48-11.35,11.48a9,9,0,0,1-1,0v6.08ZM316,146.8c0-4.6-2-6.92-4.64-6.92a6,6,0,0,0-3.52,1.28c0,2.84.12,6.52.16,11.72a7.14,7.14,0,0,0,2.6.48C313.65,153.36,316,151.2,316,146.8Z" transform="translate(-52.3 -26.24)"/><path class="cls-1" d="M325,156.68v-3.36h4.84c-.08-5.4-.12-9.56-.2-13.08l-4.72-.32.36-3.16h8.24c0,.2.28,2.44.36,3.44a13.06,13.06,0,0,1,8.39-4.2l.2,4.72a22.14,22.14,0,0,0-8.43,2c.08,3,.12,6.36.2,10.6h6l-.36,3.36Z" transform="translate(-52.3 -26.24)"/><path class="cls-1" d="M346.29,147.2c0-6.48,4.44-11,9.72-11,5,0,8.43,3.64,8.43,10.12,0,6.64-4.4,11-9.71,11C349.81,157.28,346.29,153.64,346.29,147.2Zm13.67-.12c0-4.8-1.84-7.28-4.71-7.28-2.68,0-4.44,2.2-4.44,6.56,0,4.84,1.84,7.32,4.72,7.32C358.21,153.68,360,151.48,360,147.08Z" transform="translate(-52.3 -26.24)"/><path class="cls-1" d="M381.08,154.8a7.84,7.84,0,0,1-5.48,2.4c-4.19,0-7.27-3.48-7.27-9.4,0-7.36,5.16-11.56,11.47-11.56a7.08,7.08,0,0,1,.92,0v-7.64l4.44-.4v8.48c0,9.32.08,15.44.28,19.84l-4.12.24Zm-.24-2.48c-.08-3.08-.12-7-.12-11.76a9.51,9.51,0,0,0-2.84-.52c-3,0-5.15,2.24-5.15,6.64,0,4.72,2,6.88,4.71,6.88A5.37,5.37,0,0,0,380.84,152.32Z" transform="translate(-52.3 -26.24)"/><path class="cls-1" d="M403.24,154.52a9.42,9.42,0,0,1-6.36,2.68c-3.47,0-5.67-2-5.67-6.88v-13.4l4.44-.28v12.12c0,3.52,1.27,4.64,3.31,4.64a6.89,6.89,0,0,0,4-1.36c-.08-3.68-.12-8.84-.12-15.28h4.44c0,9,.08,15.24.32,19.8l-4.12.2Z" transform="translate(-52.3 -26.24)"/><path class="cls-1" d="M428.84,136.48l.28,4.2c-10-.32-11.48,2-11.48,5.8,0,5.12,2.8,7.2,11.76,6.68l-.44,3.68c-12.44,1-15.71-3.64-15.71-9.8C413.25,141.48,416.92,136.52,428.84,136.48Z" transform="translate(-52.3 -26.24)"/><path class="cls-1" d="M439,150v-9.88h-4.08l.4-3.4H439V131.4l4.4-.4v5.76h7.52v3.4H443.4v9.2c0,3.12,1.88,3.84,8,4l-.48,3.68C441.92,157.16,439,155.16,439,150Z" transform="translate(-52.3 -26.24)"/><path class="cls-1" d="M472.24,140.4c-7.4-.64-9.68.24-9.68,1.64,0,2.68,10.68,3.84,10.68,8.84,0,3.44-3.68,6.52-15.16,6l.16-3.8c7.92.52,10.36-.4,10.36-2,0-2.84-10.64-3.56-10.64-8.56,0-3.44,3.68-6.72,14.12-6Z" transform="translate(-52.3 -26.24)"/><path class="cls-1" d="M493.56,146.68H481.08v-3.8h12.8Z" transform="translate(-52.3 -26.24)"/><path class="cls-1" d="M501.12,156.68v-3.36h6.16V132.2l-6-.32.4-3.16h10v24.6h6.16l-.36,3.36Z" transform="translate(-52.3 -26.24)"/><path class="cls-1" d="M523.08,156.68v-3.36H530V140.24l-7-.32.36-3.16h11.12v16.56h6.92l-.36,3.36Zm6.68-22.92.28-5.6h4.68l-.36,5.6Z" transform="translate(-52.3 -26.24)"/><path class="cls-1" d="M560.24,140.4c-7.4-.64-9.68.24-9.68,1.64,0,2.68,10.68,3.84,10.68,8.84,0,3.44-3.68,6.52-15.16,6l.16-3.8c7.92.52,10.36-.4,10.36-2,0-2.84-10.64-3.56-10.64-8.56,0-3.44,3.68-6.72,14.12-6Z" transform="translate(-52.3 -26.24)"/><path class="cls-1" d="M571,150v-9.88h-4.08l.4-3.4H571V131.4l4.4-.4v5.76h7.52v3.4H575.4v9.2c0,3.12,1.88,3.84,8,4l-.48,3.68C573.92,157.16,571,155.16,571,150Z" transform="translate(-52.3 -26.24)"/><path class="cls-3" d="M589.56,154.52l11.72-9.44v-.44l-11.6-9.28,2.48-3.2L605.28,143v3.72L592,157.64Z" transform="translate(-52.3 -26.24)"/><path class="cls-3" d="M214.21,237.28l-11.64,9.36v.44l11.68,9.36-2.52,3.2-13.16-10.92V245l13.24-10.88Z" transform="translate(-52.3 -26.24)"/><path class="cls-1" d="M220.57,265.64V258.8c0-10.28,0-15.92-.24-19.88l4.08-.24.2,2a7.94,7.94,0,0,1,5.56-2.48c4.15,0,7.23,3.68,7.23,9.48,0,7.28-5.11,11.48-11.35,11.48a9,9,0,0,1-1,0v6.08ZM233,248.8c0-4.6-1.95-6.92-4.63-6.92a6,6,0,0,0-3.52,1.28c0,2.84.12,6.52.16,11.72a7.14,7.14,0,0,0,2.6.48C230.65,255.36,233,253.2,233,248.8Z" transform="translate(-52.3 -26.24)"/><path class="cls-1" d="M242,258.68v-3.36h4.84c-.08-5.4-.12-9.56-.2-13.08l-4.72-.32.36-3.16h8.24c0,.2.28,2.44.36,3.44a13.06,13.06,0,0,1,8.39-4.2l.2,4.72a22.09,22.09,0,0,0-8.43,2c.07,3,.12,6.36.2,10.6h6l-.36,3.36Z" transform="translate(-52.3 -26.24)"/><path class="cls-1" d="M263.29,249.2c0-6.48,4.44-11,9.71-11,5,0,8.44,3.64,8.44,10.12,0,6.64-4.4,11-9.71,11C266.81,259.28,263.29,255.64,263.29,249.2Zm13.67-.12c0-4.8-1.84-7.28-4.72-7.28-2.67,0-4.43,2.2-4.43,6.56,0,4.84,1.84,7.32,4.71,7.32C275.2,255.68,277,253.48,277,249.08Z" transform="translate(-52.3 -26.24)"/><path class="cls-1" d="M298.08,256.8a7.84,7.84,0,0,1-5.48,2.4c-4.19,0-7.27-3.48-7.27-9.4,0-7.36,5.15-11.56,11.47-11.56a7.08,7.08,0,0,1,.92,0v-7.64l4.44-.4v8.48c0,9.32.08,15.44.28,19.84l-4.12.24Zm-.24-2.48c-.08-3.08-.12-7-.12-11.76a9.51,9.51,0,0,0-2.84-.52c-3,0-5.15,2.24-5.15,6.64,0,4.72,2,6.88,4.71,6.88A5.37,5.37,0,0,0,297.84,254.32Z" transform="translate(-52.3 -26.24)"/><path class="cls-1" d="M320.24,256.52a9.42,9.42,0,0,1-6.36,2.68c-3.48,0-5.67-2-5.67-6.88v-13.4l4.43-.28v12.12c0,3.52,1.28,4.64,3.32,4.64a6.89,6.89,0,0,0,4-1.36c-.08-3.68-.12-8.84-.12-15.28h4.44c0,9,.08,15.24.32,19.8l-4.12.2Z" transform="translate(-52.3 -26.24)"/><path class="cls-1" d="M345.84,238.48l.28,4.2c-10-.32-11.48,2-11.48,5.8,0,5.12,2.8,7.2,11.76,6.68l-.44,3.68c-12.44,1-15.72-3.64-15.72-9.8C330.24,243.48,333.92,238.52,345.84,238.48Z" transform="translate(-52.3 -26.24)"/><path class="cls-1" d="M356,252v-9.88h-4.08l.4-3.4H356V233.4l4.4-.4v5.76h7.52v3.4H360.4v9.2c0,3.12,1.88,3.84,8,4l-.48,3.68C358.92,259.16,356,257.16,356,252Z" transform="translate(-52.3 -26.24)"/><path class="cls-1" d="M388.56,248.68H376.08v-3.8h12.8Z" transform="translate(-52.3 -26.24)"/><path class="cls-1" d="M396.08,258.68v-3.36H403V242.24l-7-.32.36-3.16h11.12v16.56h6.92l-.36,3.36Zm6.68-22.92.28-5.6h4.68l-.36,5.6Z" transform="translate(-52.3 -26.24)"/><path class="cls-1" d="M422,252v-9.88h-4.08l.4-3.4H422V233.4l4.4-.4v5.76h7.52v3.4H426.4v9.2c0,3.12,1.88,3.84,8,4l-.48,3.68C424.92,259.16,422,257.16,422,252Z" transform="translate(-52.3 -26.24)"/><path class="cls-1" d="M439.64,249.08c0-6.12,4.48-10.84,9.72-10.84,5.6,0,8.28,4.4,7.56,11.32l-12.84.36c.48,4,3.48,5.32,12.28,5.52l-.44,3.72C443,259.28,439.64,255.56,439.64,249.08Zm4.4-1.8c2.12-.08,6.16-.2,8.64-.28-.12-3.16-1.36-5.12-4.12-5.12S444.24,243.56,444,247.28Z" transform="translate(-52.3 -26.24)"/><path class="cls-1" d="M465.24,243.08c.08,3.72.12,9,.12,15.6h-4.12c0-9,0-15.24-.16-19.76l3.8-.24.16,1.72a5.7,5.7,0,0,1,4.12-2.16A2.76,2.76,0,0,1,472,240.4a5.74,5.74,0,0,1,4.24-2.16c2.28,0,3.4,1.6,3.4,4.56v15.88h-4.12V244.36c0-1.72-.48-2.32-1.52-2.32a2.74,2.74,0,0,0-2,.92v15.72h-3.16V244.32c0-1.68-.44-2.28-1.44-2.28A3.31,3.31,0,0,0,465.24,243.08Z" transform="translate(-52.3 -26.24)"/><path class="cls-3" d="M484.56,256.52l11.72-9.44v-.44l-11.6-9.28,2.48-3.2L500.28,245v3.72L487,259.64Z" transform="translate(-52.3 -26.24)"/><path class="cls-3" d="M214.21,292.28l-11.64,9.36v.44l11.68,9.36-2.52,3.2-13.16-10.92V300l13.24-10.88Z" transform="translate(-52.3 -26.24)"/><path class="cls-1" d="M220.57,320.64V313.8c0-10.28,0-15.92-.24-19.88l4.08-.24.2,2a7.94,7.94,0,0,1,5.56-2.48c4.15,0,7.23,3.68,7.23,9.48,0,7.28-5.11,11.48-11.35,11.48a9,9,0,0,1-1,0v6.08ZM233,303.8c0-4.6-1.95-6.92-4.63-6.92a6,6,0,0,0-3.52,1.28c0,2.84.12,6.52.16,11.72a7.14,7.14,0,0,0,2.6.48C230.65,310.36,233,308.2,233,303.8Z" transform="translate(-52.3 -26.24)"/><path class="cls-1" d="M242,313.68v-3.36h4.84c-.08-5.4-.12-9.56-.2-13.08l-4.72-.32.36-3.16h8.24c0,.2.28,2.44.36,3.44a13.06,13.06,0,0,1,8.39-4.2l.2,4.72a22.09,22.09,0,0,0-8.43,2c.07,3,.12,6.36.2,10.6h6l-.36,3.36Z" transform="translate(-52.3 -26.24)"/><path class="cls-1" d="M263.29,304.2c0-6.48,4.44-11,9.71-11,5,0,8.44,3.64,8.44,10.12,0,6.64-4.4,11-9.71,11C266.81,314.28,263.29,310.64,263.29,304.2Zm13.67-.12c0-4.8-1.84-7.28-4.72-7.28-2.67,0-4.43,2.2-4.43,6.56,0,4.84,1.84,7.32,4.71,7.32C275.2,310.68,277,308.48,277,304.08Z" transform="translate(-52.3 -26.24)"/><path class="cls-1" d="M298.08,311.8a7.84,7.84,0,0,1-5.48,2.4c-4.19,0-7.27-3.48-7.27-9.4,0-7.36,5.15-11.56,11.47-11.56a7.08,7.08,0,0,1,.92,0v-7.64l4.44-.4v8.48c0,9.32.08,15.44.28,19.84l-4.12.24Zm-.24-2.48c-.08-3.08-.12-7-.12-11.76a9.51,9.51,0,0,0-2.84-.52c-3,0-5.15,2.24-5.15,6.64,0,4.72,2,6.88,4.71,6.88A5.37,5.37,0,0,0,297.84,309.32Z" transform="translate(-52.3 -26.24)"/><path class="cls-1" d="M320.24,311.52a9.42,9.42,0,0,1-6.36,2.68c-3.48,0-5.67-2-5.67-6.88v-13.4l4.43-.28v12.12c0,3.52,1.28,4.64,3.32,4.64a6.89,6.89,0,0,0,4-1.36c-.08-3.68-.12-8.84-.12-15.28h4.44c0,9,.08,15.24.32,19.8l-4.12.2Z" transform="translate(-52.3 -26.24)"/><path class="cls-1" d="M345.84,293.48l.28,4.2c-10-.32-11.48,2-11.48,5.8,0,5.12,2.8,7.2,11.76,6.68l-.44,3.68c-12.44,1-15.72-3.64-15.72-9.8C330.24,298.48,333.92,293.52,345.84,293.48Z" transform="translate(-52.3 -26.24)"/><path class="cls-1" d="M356,307v-9.88h-4.08l.4-3.4H356V288.4l4.4-.4v5.76h7.52v3.4H360.4v9.2c0,3.12,1.88,3.84,8,4l-.48,3.68C358.92,314.16,356,312.16,356,307Z" transform="translate(-52.3 -26.24)"/><path class="cls-1" d="M388.56,303.68H376.08v-3.8h12.8Z" transform="translate(-52.3 -26.24)"/><path class="cls-1" d="M396.08,313.68v-3.36H403V297.24l-7-.32.36-3.16h11.12v16.56h6.92l-.36,3.36Zm6.68-22.92.28-5.6h4.68l-.36,5.6Z" transform="translate(-52.3 -26.24)"/><path class="cls-1" d="M422,307v-9.88h-4.08l.4-3.4H422V288.4l4.4-.4v5.76h7.52v3.4H426.4v9.2c0,3.12,1.88,3.84,8,4l-.48,3.68C424.92,314.16,422,312.16,422,307Z" transform="translate(-52.3 -26.24)"/><path class="cls-1" d="M439.64,304.08c0-6.12,4.48-10.84,9.72-10.84,5.6,0,8.28,4.4,7.56,11.32l-12.84.36c.48,4,3.48,5.32,12.28,5.52l-.44,3.72C443,314.28,439.64,310.56,439.64,304.08Zm4.4-1.8c2.12-.08,6.16-.2,8.64-.28-.12-3.16-1.36-5.12-4.12-5.12S444.24,298.56,444,302.28Z" transform="translate(-52.3 -26.24)"/><path class="cls-1" d="M465.24,298.08c.08,3.72.12,9,.12,15.6h-4.12c0-9,0-15.24-.16-19.76l3.8-.24.16,1.72a5.7,5.7,0,0,1,4.12-2.16A2.76,2.76,0,0,1,472,295.4a5.74,5.74,0,0,1,4.24-2.16c2.28,0,3.4,1.6,3.4,4.56v15.88h-4.12V299.36c0-1.72-.48-2.32-1.52-2.32a2.74,2.74,0,0,0-2,.92v15.72h-3.16V299.32c0-1.68-.44-2.28-1.44-2.28A3.31,3.31,0,0,0,465.24,298.08Z" transform="translate(-52.3 -26.24)"/><path class="cls-3" d="M484.56,311.52l11.72-9.44v-.44l-11.6-9.28,2.48-3.2L500.28,300v3.72L487,314.64Z" transform="translate(-52.3 -26.24)"/><path class="cls-3" d="M214.21,344.28l-11.64,9.36v.44l11.68,9.36-2.52,3.2-13.16-10.92V352l13.24-10.88Z" transform="translate(-52.3 -26.24)"/><path class="cls-1" d="M220.57,372.64V365.8c0-10.28,0-15.92-.24-19.88l4.08-.24.2,2a7.94,7.94,0,0,1,5.56-2.48c4.15,0,7.23,3.68,7.23,9.48,0,7.28-5.11,11.48-11.35,11.48a9,9,0,0,1-1,0v6.08ZM233,355.8c0-4.6-1.95-6.92-4.63-6.92a6,6,0,0,0-3.52,1.28c0,2.84.12,6.52.16,11.72a7.14,7.14,0,0,0,2.6.48C230.65,362.36,233,360.2,233,355.8Z" transform="translate(-52.3 -26.24)"/><path class="cls-1" d="M242,365.68v-3.36h4.84c-.08-5.4-.12-9.56-.2-13.08l-4.72-.32.36-3.16h8.24c0,.2.28,2.44.36,3.44a13.06,13.06,0,0,1,8.39-4.2l.2,4.72a22.09,22.09,0,0,0-8.43,2c.07,3,.12,6.36.2,10.6h6l-.36,3.36Z" transform="translate(-52.3 -26.24)"/><path class="cls-1" d="M263.29,356.2c0-6.48,4.44-11,9.71-11,5,0,8.44,3.64,8.44,10.12,0,6.64-4.4,11-9.71,11C266.81,366.28,263.29,362.64,263.29,356.2Zm13.67-.12c0-4.8-1.84-7.28-4.72-7.28-2.67,0-4.43,2.2-4.43,6.56,0,4.84,1.84,7.32,4.71,7.32C275.2,362.68,277,360.48,277,356.08Z" transform="translate(-52.3 -26.24)"/><path class="cls-1" d="M298.08,363.8a7.84,7.84,0,0,1-5.48,2.4c-4.19,0-7.27-3.48-7.27-9.4,0-7.36,5.15-11.56,11.47-11.56a7.08,7.08,0,0,1,.92,0v-7.64l4.44-.4v8.48c0,9.32.08,15.44.28,19.84l-4.12.24Zm-.24-2.48c-.08-3.08-.12-7-.12-11.76a9.51,9.51,0,0,0-2.84-.52c-3,0-5.15,2.24-5.15,6.64,0,4.72,2,6.88,4.71,6.88A5.37,5.37,0,0,0,297.84,361.32Z" transform="translate(-52.3 -26.24)"/><path class="cls-1" d="M320.24,363.52a9.42,9.42,0,0,1-6.36,2.68c-3.48,0-5.67-2-5.67-6.88v-13.4l4.43-.28v12.12c0,3.52,1.28,4.64,3.32,4.64a6.89,6.89,0,0,0,4-1.36c-.08-3.68-.12-8.84-.12-15.28h4.44c0,9,.08,15.24.32,19.8l-4.12.2Z" transform="translate(-52.3 -26.24)"/><path class="cls-1" d="M345.84,345.48l.28,4.2c-10-.32-11.48,2-11.48,5.8,0,5.12,2.8,7.2,11.76,6.68l-.44,3.68c-12.44,1-15.72-3.64-15.72-9.8C330.24,350.48,333.92,345.52,345.84,345.48Z" transform="translate(-52.3 -26.24)"/><path class="cls-1" d="M356,359v-9.88h-4.08l.4-3.4H356V340.4l4.4-.4v5.76h7.52v3.4H360.4v9.2c0,3.12,1.88,3.84,8,4l-.48,3.68C358.92,366.16,356,364.16,356,359Z" transform="translate(-52.3 -26.24)"/><path class="cls-1" d="M388.56,355.68H376.08v-3.8h12.8Z" transform="translate(-52.3 -26.24)"/><path class="cls-1" d="M396.08,365.68v-3.36H403V349.24l-7-.32.36-3.16h11.12v16.56h6.92l-.36,3.36Zm6.68-22.92.28-5.6h4.68l-.36,5.6Z" transform="translate(-52.3 -26.24)"/><path class="cls-1" d="M422,359v-9.88h-4.08l.4-3.4H422V340.4l4.4-.4v5.76h7.52v3.4H426.4v9.2c0,3.12,1.88,3.84,8,4l-.48,3.68C424.92,366.16,422,364.16,422,359Z" transform="translate(-52.3 -26.24)"/><path class="cls-1" d="M439.64,356.08c0-6.12,4.48-10.84,9.72-10.84,5.6,0,8.28,4.4,7.56,11.32l-12.84.36c.48,4,3.48,5.32,12.28,5.52l-.44,3.72C443,366.28,439.64,362.56,439.64,356.08Zm4.4-1.8c2.12-.08,6.16-.2,8.64-.28-.12-3.16-1.36-5.12-4.12-5.12S444.24,350.56,444,354.28Z" transform="translate(-52.3 -26.24)"/><path class="cls-1" d="M465.24,350.08c.08,3.72.12,9,.12,15.6h-4.12c0-9,0-15.24-.16-19.76l3.8-.24.16,1.72a5.7,5.7,0,0,1,4.12-2.16A2.76,2.76,0,0,1,472,347.4a5.74,5.74,0,0,1,4.24-2.16c2.28,0,3.4,1.6,3.4,4.56v15.88h-4.12V351.36c0-1.72-.48-2.32-1.52-2.32a2.74,2.74,0,0,0-2,.92v15.72h-3.16V351.32c0-1.68-.44-2.28-1.44-2.28A3.31,3.31,0,0,0,465.24,350.08Z" transform="translate(-52.3 -26.24)"/><path class="cls-3" d="M484.56,363.52l11.72-9.44v-.44l-11.6-9.28,2.48-3.2L500.28,352v3.72L487,366.64Z" transform="translate(-52.3 -26.24)"/><line class="cls-7" x1="593.13" y1="51.62" x2="587.27" y2="52.91"/><line class="cls-8" x1="574.94" y1="55.64" x2="433.15" y2="86.96"/><line class="cls-7" x1="426.99" y1="88.32" x2="421.13" y2="89.62"/><line class="cls-7" x1="391.13" y1="137.62" x2="385.97" y2="140.69"/><line class="cls-9" x1="376.16" y1="146.52" x2="322.19" y2="178.63"/><line class="cls-7" x1="317.29" y1="181.55" x2="312.13" y2="184.62"/><line class="cls-7" x1="628.13" y1="50.62" x2="634" y2="51.87"/><line class="cls-10" x1="645.08" y1="54.24" x2="794.72" y2="86.18"/><line class="cls-7" x1="800.26" y1="87.37" x2="806.13" y2="88.62"/><line class="cls-7" x1="813.13" y1="149.62" x2="807.38" y2="151.34"/><line class="cls-11" x1="795.66" y1="154.85" x2="707.74" y2="181.15"/><line class="cls-7" x1="701.88" y1="182.9" x2="696.13" y2="184.62"/><line class="cls-7" x1="837.13" y1="147.62" x2="842.96" y2="149.02"/><line class="cls-12" x1="854.22" y1="151.73" x2="983.67" y2="182.86"/><line class="cls-7" x1="989.3" y1="184.22" x2="995.13" y2="185.62"/></svg>