<svg xmlns="http://www.w3.org/2000/svg" viewBox="0 0 1420 780"><defs><style>.cls-1{fill:#36393e;}.cls-2{fill:#f2f2f2;}.cls-3{fill:#f6a7ba;}.cls-4{fill:#62afee;}.cls-5{fill:#fff;}.cls-6,.cls-7,.cls-8,.cls-9{fill:none;stroke-linecap:round;stroke-linejoin:round;}.cls-6,.cls-7,.cls-8{stroke:#fff;}.cls-7{stroke-dasharray:12.63 12.63;}.cls-8{stroke-dasharray:11.33 11.33;}.cls-9{stroke:#62afee;stroke-width:3px;}</style></defs><g id="Layer_2" data-name="Layer 2"><rect class="cls-1" x="-4570" y="-152.5" width="6252" height="1085"/></g><g id="Layer_1" data-name="Layer 1"><path class="cls-2" d="M642.84,146.56l-11.64,9.36v.44l11.68,9.36-2.52,3.2L627.2,158v-3.72l13.24-10.88Z"/><path class="cls-3" d="M651.88,152.36c.08,3.72.12,9,.12,15.6h-4.12c0-9,0-15.24-.16-19.76l3.8-.24.16,1.72a5.7,5.7,0,0,1,4.12-2.16,2.76,2.76,0,0,1,2.88,2.16,5.74,5.74,0,0,1,4.24-2.16c2.28,0,3.4,1.6,3.4,4.56V168H662.2V153.64c0-1.72-.48-2.32-1.52-2.32a2.74,2.74,0,0,0-2,.92V168h-3.16V153.6c0-1.68-.44-2.28-1.44-2.28A3.31,3.31,0,0,0,651.88,152.36Z"/><path class="cls-3" d="M670.48,171c4.72-.68,6-1.12,7.12-3.8l-.76-.28c-1.88-4.2-6-14.8-7.52-18.76l4.52-.32c1.64,4.4,3.76,10.4,5.6,14.8h.4c1.24-3.84,4-13.32,4.48-14.64h4.28c-1.44,4.52-3.4,10.52-5.6,16.44-2.88,8-5,9.92-12.16,10.56Z"/><path class="cls-3" d="M707.2,158H694.72v-3.8h12.8Z"/><path class="cls-3" d="M726.88,165.68a9.16,9.16,0,0,1-6.52,2.8c-3.56,0-6-2-6-5.2,0-4,3.76-7.2,12.16-6.84-.24-3.84-2.44-4.76-11-5l.44-3.76c12,.2,15,2.68,15,10.44,0,3.88.16,7,.36,9.8l-4.08.2C727.2,167.92,727,166.64,726.88,165.68Zm-.2-2.2c-.08-1.16-.08-2.48-.12-4.12-6.16-.64-7.8.68-7.8,2.88,0,1.76,1.32,2.8,3.36,2.8A8.34,8.34,0,0,0,726.68,163.48Z"/><path class="cls-3" d="M737.2,174.92v-6.84c0-10.28,0-15.92-.24-19.88L741,148l.2,2a7.94,7.94,0,0,1,5.56-2.48c4.16,0,7.24,3.68,7.24,9.48,0,7.28-5.12,11.48-11.36,11.48a9,9,0,0,1-1,0v6.08Zm12.44-16.84c0-4.6-2-6.92-4.64-6.92a6,6,0,0,0-3.52,1.28c0,2.84.12,6.52.16,11.72a7.14,7.14,0,0,0,2.6.48C747.28,164.64,749.64,162.48,749.64,158.08Z"/><path class="cls-3" d="M759.2,174.92v-6.84c0-10.28,0-15.92-.24-19.88L763,148l.2,2a7.94,7.94,0,0,1,5.56-2.48c4.16,0,7.24,3.68,7.24,9.48,0,7.28-5.12,11.48-11.36,11.48a9,9,0,0,1-1,0v6.08Zm12.44-16.84c0-4.6-2-6.92-4.64-6.92a6,6,0,0,0-3.52,1.28c0,2.84.12,6.52.16,11.72a7.14,7.14,0,0,0,2.6.48C769.28,164.64,771.64,162.48,771.64,158.08Z"/><path class="cls-2" d="M781.2,165.8l11.72-9.44v-.44l-11.6-9.28,2.48-3.2,13.12,10.84V158L783.6,168.92Z"/><path class="cls-2" d="M424.84,268.56l-11.64,9.36v.44l11.68,9.36-2.52,3.2L409.2,280v-3.72l13.24-10.88Z"/><path class="cls-3" d="M433.88,274.36c.08,3.72.12,9,.12,15.6h-4.12c0-9,0-15.24-.16-19.76l3.8-.24.16,1.72a5.7,5.7,0,0,1,4.12-2.16,2.76,2.76,0,0,1,2.88,2.16,5.74,5.74,0,0,1,4.24-2.16c2.28,0,3.4,1.6,3.4,4.56V290H444.2V275.64c0-1.72-.48-2.32-1.52-2.32a2.74,2.74,0,0,0-2,.92V290h-3.16V275.6c0-1.68-.44-2.28-1.44-2.28A3.31,3.31,0,0,0,433.88,274.36Z"/><path class="cls-3" d="M452.48,293c4.72-.68,6-1.12,7.12-3.8l-.76-.28c-1.88-4.2-6-14.8-7.52-18.76l4.52-.32c1.64,4.4,3.76,10.4,5.6,14.8h.4c1.24-3.84,4-13.32,4.48-14.64h4.28c-1.44,4.52-3.4,10.52-5.6,16.44-2.88,8-5,9.92-12.16,10.56Z"/><path class="cls-3" d="M489.2,280H476.72v-3.8h12.8Z"/><path class="cls-3" d="M512.44,290H497v-3.32h5V274.28H496.8l.4-3.4h4.88v0c0-5.12,2.88-9,12.2-9.44l.28,4.32c-7.28.24-8,.88-8,4.44v.72h6.72v3.4h-6.72v12.36h6.32Z"/><path class="cls-3" d="M517.92,280.48c0-6.48,4.44-11,9.72-11,5,0,8.44,3.64,8.44,10.12,0,6.64-4.4,11-9.72,11C521.44,290.56,517.92,286.92,517.92,280.48Zm13.68-.12c0-4.8-1.84-7.28-4.72-7.28-2.68,0-4.44,2.2-4.44,6.56,0,4.84,1.84,7.32,4.72,7.32C529.84,287,531.6,284.76,531.6,280.36Z"/><path class="cls-3" d="M539.92,280.48c0-6.48,4.44-11,9.72-11,5,0,8.44,3.64,8.44,10.12,0,6.64-4.4,11-9.72,11C543.44,290.56,539.92,286.92,539.92,280.48Zm13.68-.12c0-4.8-1.84-7.28-4.72-7.28-2.68,0-4.44,2.2-4.44,6.56,0,4.84,1.84,7.32,4.72,7.32C551.84,287,553.6,284.76,553.6,280.36Z"/><path class="cls-2" d="M563.2,287.8l11.72-9.44v-.44l-11.6-9.28,2.48-3.2,13.12,10.84V280L565.6,290.92Z"/><path class="cls-2" d="M858.84,268.56l-11.64,9.36v.44l11.68,9.36-2.52,3.2L843.2,280v-3.72l13.24-10.88Z"/><path class="cls-3" d="M867.88,274.36c.08,3.72.12,9,.12,15.6h-4.12c0-9,0-15.24-.16-19.76l3.8-.24.16,1.72a5.7,5.7,0,0,1,4.12-2.16,2.76,2.76,0,0,1,2.88,2.16,5.74,5.74,0,0,1,4.24-2.16c2.28,0,3.4,1.6,3.4,4.56V290H878.2V275.64c0-1.72-.48-2.32-1.52-2.32a2.74,2.74,0,0,0-2,.92V290h-3.16V275.6c0-1.68-.44-2.28-1.44-2.28A3.31,3.31,0,0,0,867.88,274.36Z"/><path class="cls-3" d="M886.48,293c4.72-.68,6-1.12,7.12-3.8l-.76-.28c-1.88-4.2-6-14.8-7.52-18.76l4.52-.32c1.64,4.4,3.76,10.4,5.6,14.8h.4c1.24-3.84,4-13.32,4.48-14.64h4.28c-1.44,4.52-3.4,10.52-5.6,16.44-2.88,8-5,9.92-12.16,10.56Z"/><path class="cls-3" d="M923.2,280H910.72v-3.8h12.8Z"/><path class="cls-3" d="M931.12,289.4V261.92l4.44-.4v10.16a7.75,7.75,0,0,1,5.24-2.16c4.2,0,7.24,3.68,7.24,9.48,0,7.16-5.16,11.48-10.92,11.48A16.17,16.17,0,0,1,931.12,289.4Zm12.52-9.32c0-4.6-1.92-6.92-4.64-6.92a6.08,6.08,0,0,0-3.44,1.2v11.72a9.39,9.39,0,0,0,3.16.56C941.76,286.64,943.64,284.6,943.64,280.08Z"/><path class="cls-3" d="M964.88,287.68a9.16,9.16,0,0,1-6.52,2.8c-3.56,0-6-2-6-5.2,0-4,3.76-7.2,12.16-6.84-.24-3.84-2.44-4.76-11-5l.44-3.76c12,.2,15,2.68,15,10.44,0,3.88.16,7,.36,9.8l-4.08.2C965.2,289.92,965,288.64,964.88,287.68Zm-.2-2.2c-.08-1.16-.08-2.48-.12-4.12-6.16-.64-7.8.68-7.8,2.88,0,1.76,1.32,2.8,3.36,2.8A8.34,8.34,0,0,0,964.68,285.48Z"/><path class="cls-3" d="M974.64,290V286.6h4.84c-.08-5.4-.12-9.56-.2-13.08l-4.72-.32.36-3.16h8.24c0,.2.28,2.44.36,3.44a13.09,13.09,0,0,1,8.4-4.2l.2,4.72a22.2,22.2,0,0,0-8.44,2c.08,3,.12,6.36.2,10.6h6l-.36,3.36Z"/><path class="cls-2" d="M997.2,287.8l11.72-9.44v-.44l-11.6-9.28,2.48-3.2,13.12,10.84V280L999.6,290.92Z"/><path class="cls-4" d="M381.84,400.22c-7.4-.64-9.68.24-9.68,1.64,0,2.68,10.68,3.84,10.68,8.84,0,3.44-3.68,6.51-15.15,6l.16-3.8c7.91.51,10.35-.41,10.35-2,0-2.84-10.64-3.56-10.64-8.56,0-3.44,3.68-6.72,14.12-6Z"/><path class="cls-4" d="M388.24,406.9c0-6.12,4.48-10.84,9.72-10.84,5.6,0,8.28,4.4,7.56,11.32l-12.84.36c.48,4,3.48,5.32,12.28,5.52l-.44,3.72C391.64,417.09,388.24,413.38,388.24,406.9Zm4.4-1.8c2.12-.08,6.16-.2,8.64-.28-.12-3.16-1.36-5.12-4.12-5.12S392.84,401.38,392.64,405.1Z"/><path class="cls-4" d="M414.6,409.86V400h-4.08l.4-3.4h3.68v-5.36l4.4-.4v5.76h7.52V400H419v9.2c0,3.12,1.88,3.84,8,4l-.48,3.68C417.52,417,414.6,415,414.6,409.86Z"/><path class="cls-4" d="M448.92,416.66c-12.8,1-16.52-4.68-16.52-12.2,0-6.92,4.12-12.88,16.44-13.12l.24,4.4c-10.2-.2-11.92,2.72-11.92,8.12,0,6.52,2.68,9.36,12.16,8.88Z"/><path class="cls-4" d="M453.88,407c0-6.48,4.44-11,9.72-11,5,0,8.44,3.64,8.44,10.12,0,6.64-4.4,11-9.72,11C457.4,417.09,453.88,413.46,453.88,407Zm13.68-.12c0-4.8-1.84-7.28-4.72-7.28-2.68,0-4.44,2.2-4.44,6.56,0,4.84,1.84,7.31,4.72,7.31C465.8,413.49,467.56,411.3,467.56,406.9Z"/><path class="cls-4" d="M488.84,414.33a9.37,9.37,0,0,1-6.36,2.68c-3.48,0-5.68-2-5.68-6.87v-13.4l4.44-.28v12.12c0,3.52,1.28,4.64,3.32,4.64a6.89,6.89,0,0,0,4-1.36c-.08-3.68-.12-8.84-.12-15.28h4.44c0,9,.08,15.24.32,19.79l-4.12.21Z"/><path class="cls-4" d="M503.36,401.18c.08,3.72.16,8.92.16,15.31H499c0-8.95-.08-15.23-.32-19.75l4.12-.24.24,2.28a9.37,9.37,0,0,1,6.4-2.72c3.48,0,5.72,2,5.72,6.88v13.55h-4.44v-12c0-3.52-1.32-4.64-3.36-4.64A7.26,7.26,0,0,0,503.36,401.18Z"/><path class="cls-4" d="M524.6,409.86V400h-4.08l.4-3.4h3.68v-5.36l4.4-.4v5.76h7.52V400H529v9.2c0,3.12,1.88,3.84,8,4l-.48,3.68C527.52,417,524.6,415,524.6,409.86Z"/><path class="cls-2" d="M558.92,390c-7.92,6.4-10.48,11.16-10.48,16s2.68,9.8,10.36,16l-3.08,2.76c-8.4-7.2-11.68-12.91-11.68-18.59,0-5.84,3.36-11.68,11.88-18.92Z"/><path class="cls-2" d="M565.16,416.49l-.44-3.51c7.48-5.8,11.52-9.4,11.52-13.08,0-2.8-2.4-4.28-10.76-4.4l.36-4.12c11.44-.12,14.8,3.24,14.8,7.36,0,5-3.92,8.68-10.6,13.92h11.24v3.83Z"/><path class="cls-2" d="M587,422.09c7.92-6.35,10.48-11.15,10.48-16s-2.64-9.8-10.36-16l3.08-2.76c8.4,7.2,11.72,12.92,11.72,18.6s-3.36,11.68-11.88,18.91Z"/><path class="cls-2" d="M613.92,410.86l5.8-.28c1.8,4.56-.6,9.63-4.08,12.79l-2.36-.72C615.56,419.77,616,415.06,613.92,410.86Zm.2-7.2.08-5.6h6.12l-.08,5.6Z"/><path class="cls-3" d="M609.33,510.26A60.33,60.33,0,1,1,549,570.59a60.39,60.39,0,0,1,60.32-60.33m0-3a63.33,63.33,0,1,0,63.33,63.33,63.32,63.32,0,0,0-63.33-63.33Z"/><path class="cls-3" d="M616.65,578.83h-17c-1.29,5.26-2.49,10.62-3.79,15.88H585.34c4.9-19,9.89-38.23,15.61-57.35h14.69c5.63,19.12,10.71,38,15.61,57l-10.72.74C619.24,589.73,618,584.28,616.65,578.83Zm-15.14-7.76h13.3c-2-8.41-4.16-16.81-6.28-25h-.74C605.66,554.35,603.54,562.66,601.51,571.07Z"/><path class="cls-5" d="M711.73,525.43c0-2.21,2.55-3.44,2.55-4.67,0-1-1.31-1.74-4.06-2l.09-2.19c3.22-.33,4.17-.81,4.17-1.56,0-1.15-2.77-2.33-2.8-4.46s2.24-4.06,8.82-6.13l1,2.52c-4.68,1.29-6.81,2.27-6.81,3.39s2.58,2.63,2.58,4.2c0,1-.87,2.21-3.16,2.91,2.29.62,3.16,1.74,3.16,2.83,0,1.76-2.41,2.91-2.41,4.4s2.1,2.4,6.58,3.75l-1,2.49C713.86,528.85,711.73,527.56,711.73,525.43Z"/><path class="cls-4" d="M745.89,552.57l-1.65,0v6h-3.11V539l3.11-.28v11.7l1.65,0a54.7,54.7,0,0,0,3.9-5.79l3.19.25c-1.37,2.16-2.86,4.34-4.45,6.41l4.84,7.17-3.33.39Z"/><path class="cls-4" d="M755.67,551.87c0-4.29,3.13-7.59,6.8-7.59,3.92,0,5.8,3.08,5.29,7.92l-9,.25c.34,2.8,2.44,3.73,8.6,3.87l-.31,2.6C758.05,559,755.67,556.4,755.67,551.87Zm3.07-1.26c1.49-.06,4.32-.14,6-.2-.08-2.21-.95-3.58-2.88-3.58S758.89,548,758.74,550.61Z"/><path class="cls-4" d="M771.2,560.74c3.31-.47,4.18-.78,5-2.66l-.53-.19c-1.32-2.94-4.2-10.36-5.27-13.14l3.17-.22c1.14,3.08,2.63,7.28,3.92,10.36h.28c.86-2.69,2.77-9.32,3.13-10.25h3c-1,3.17-2.38,7.37-3.92,11.51-2,5.63-3.5,6.94-8.51,7.39Z"/><path class="cls-5" d="M790.3,558.59l.14-3.92h4.28l-.14,3.92Zm.25-9,.06-3.92h4.25l-.05,3.92Z"/><path class="cls-5" d="M825.61,548l-4,.22c-1.29-3.16.31-6.8,2.77-9l1.66.47A8.08,8.08,0,0,0,825.61,548Z"/><path class="cls-5" d="M844,544.45l.2,2.94c-7-.23-8,1.37-8,4.06,0,3.58,2,5,8.23,4.67l-.3,2.58c-8.71.73-11-2.55-11-6.86C833.08,548,835.66,544.47,844,544.45Z"/><path class="cls-5" d="M847.81,552c0-4.54,3.11-7.73,6.8-7.73,3.5,0,5.91,2.55,5.91,7.09s-3.08,7.7-6.8,7.7C850.27,559,847.81,556.46,847.81,552Zm9.58-.08c0-3.36-1.29-5.1-3.31-5.1s-3.11,1.54-3.11,4.59c0,3.39,1.29,5.13,3.31,5.13S857.39,555,857.39,551.87Z"/><path class="cls-5" d="M872.28,557.07a6.6,6.6,0,0,1-4.45,1.88c-2.44,0-4-1.4-4-4.82v-9.38l3.11-.19V553c0,2.47.9,3.25,2.32,3.25a4.79,4.79,0,0,0,2.8-.95c-.05-2.58-.08-6.19-.08-10.7h3.11c0,6.27,0,10.67.22,13.86l-2.88.14Z"/><path class="cls-5" d="M882.44,547.86c.06,2.61.12,6.25.12,10.73h-3.14c0-6.28-.06-10.67-.22-13.84l2.88-.16.17,1.59a6.55,6.55,0,0,1,4.48-1.9c2.43,0,4,1.43,4,4.81v9.5h-3.11v-8.4c0-2.47-.92-3.25-2.35-3.25A5.1,5.1,0,0,0,882.44,547.86Z"/><path class="cls-5" d="M897.31,553.94V547h-2.85l.28-2.38h2.57v-3.75l3.08-.28v4h5.27V547h-5.27v6.44c0,2.19,1.32,2.69,5.57,2.77l-.33,2.58C899.36,558.92,897.31,557.52,897.31,553.94Z"/><path class="cls-5" d="M913.89,539.85l4-.22c1.28,3.16-.31,6.8-2.75,9l-1.68-.51C915,546.13,915.29,542.82,913.89,539.85Z"/><path class="cls-5" d="M928.9,554.61l4-.2c1.26,3.14-.37,6.78-2.8,9l-1.65-.47A8.12,8.12,0,0,0,928.9,554.61Z"/><path class="cls-4" d="M749,590.87a5.5,5.5,0,0,1-3.83,1.68c-2.94,0-5.1-2.44-5.1-6.58a7.67,7.67,0,0,1,8-8.09,4.57,4.57,0,0,1,.64,0v-5.35l3.11-.28v5.93c0,6.53.06,10.81.2,13.89l-2.89.17Zm-.16-1.74c-.06-2.15-.09-4.87-.09-8.23a6.77,6.77,0,0,0-2-.36c-2.12,0-3.61,1.57-3.61,4.65,0,3.3,1.37,4.81,3.31,4.81A3.74,3.74,0,0,0,748.81,589.13Z"/><path class="cls-4" d="M755.67,585.47c0-4.29,3.13-7.59,6.8-7.59,3.92,0,5.8,3.08,5.29,7.92l-9,.25c.34,2.8,2.44,3.73,8.6,3.87l-.31,2.6C758.05,592.61,755.67,590,755.67,585.47Zm3.07-1.26c1.49-.06,4.32-.14,6-.2-.08-2.21-.95-3.58-2.88-3.58S758.89,581.6,758.74,584.21Z"/><path class="cls-4" d="M782.38,592.19H771.6v-2.33h3.52v-8.65h-3.69l.28-2.38h3.41v0c0-3.58,2-6.27,8.54-6.61l.2,3c-5.1.17-5.63.61-5.63,3.11v.5h4.71v2.38h-4.71v8.65h4.43Z"/><path class="cls-4" d="M795.28,590.59a6.37,6.37,0,0,1-4.56,2c-2.49,0-4.2-1.37-4.2-3.64,0-2.8,2.63-5,8.51-4.79-.17-2.69-1.71-3.33-7.7-3.53l.31-2.63c8.4.14,10.5,1.88,10.5,7.31,0,2.72.11,4.93.25,6.86l-2.85.14C795.51,592.16,795.37,591.26,795.28,590.59Zm-.14-1.54c0-.81,0-1.74-.08-2.88-4.31-.45-5.46.47-5.46,2,0,1.23.92,2,2.35,2A5.83,5.83,0,0,0,795.14,589.05Z"/><path class="cls-4" d="M810.68,590.67a6.6,6.6,0,0,1-4.45,1.88c-2.43,0-4-1.4-4-4.82v-9.38l3.1-.19v8.48c0,2.47.9,3.25,2.33,3.25a4.82,4.82,0,0,0,2.8-.95c-.06-2.58-.09-6.19-.09-10.7h3.11c0,6.27.06,10.67.22,13.86l-2.88.14Z"/><path class="cls-4" d="M817.6,592.19v-2.36h4.31V575.05l-4.17-.22.28-2.22h7v17.22h4.31l-.25,2.36Z"/><path class="cls-4" d="M835.71,587.54v-6.92h-2.85l.28-2.38h2.57v-3.75l3.08-.28v4h5.27v2.38h-5.27v6.44c0,2.19,1.32,2.69,5.58,2.77l-.34,2.58C837.76,592.52,835.71,591.12,835.71,587.54Z"/><path class="cls-5" d="M851.9,592.19l.14-3.92h4.28l-.14,3.92Zm.25-9,.06-3.92h4.25l-.05,3.92Z"/><path class="cls-5" d="M878.64,583.79c0-5.6,2.52-9.33,6.55-9.33s6.1,3.31,6.1,8.77-2.49,9.32-6.52,9.32S878.64,589.25,878.64,583.79Zm3,.28,6.44-3.34c-.45-2.35-1.45-3.75-3.11-3.75-2.26,0-3.36,2.27-3.36,6.25A7.68,7.68,0,0,0,881.63,584.07Zm6.69-.28v-.73l-6.44,3.33c.45,2.3,1.49,3.64,3.11,3.64C887.26,590,888.32,587.76,888.32,583.79Z"/><path class="cls-5" d="M709.72,629.17c4.67-1.28,6.77-2.26,6.77-3.36,0-1.28-2.54-2.63-2.54-4.22,0-1,.86-2.19,3.19-2.92-2.33-.61-3.19-1.7-3.19-2.8,0-1.76,2.4-2.91,2.4-4.39s-2.1-2.44-6.58-3.78l1-2.47c6.52,2.08,8.65,3.36,8.65,5.49s-2.55,3.45-2.55,4.71c0,1,1.29,1.7,4.06,1.93l-.11,2.21c-3.19.31-4.14.81-4.14,1.57,0,1.15,2.77,2.29,2.77,4.42s-2.21,4.06-8.79,6.16Z"/><line class="cls-6" x1="694.38" y1="198.47" x2="688.52" y2="199.77"/><line class="cls-7" x1="676.19" y1="202.49" x2="534.4" y2="233.82"/><line class="cls-6" x1="528.23" y1="235.18" x2="522.38" y2="236.47"/><line class="cls-6" x1="729.38" y1="197.47" x2="735.24" y2="198.73"/><line class="cls-8" x1="746.33" y1="201.09" x2="895.97" y2="233.04"/><line class="cls-6" x1="901.51" y1="234.22" x2="907.38" y2="235.47"/><line class="cls-9" x1="467.56" y1="314.68" x2="467.56" y2="370.63"/><polyline class="cls-9" points="448.55 354.8 467.6 371.07 487.75 353.53"/><path class="cls-9" d="M464.56,442.4s-18.28,116,65.83,125.79"/><polyline class="cls-9" points="515.73 586.36 532 567.31 514.46 547.16"/><path class="cls-9" d="M956.89,537.36S1024.5,453,983.5,320"/><polyline class="cls-9" points="1005.67 325.92 982.35 317.06 969.46 340.39"/></g></svg>