<svg id="Layer_1" data-name="Layer 1" xmlns="http://www.w3.org/2000/svg" viewBox="0 0 1420 780"><defs><style>.cls-1{fill:#f6a7ba;}.cls-2{fill:#f2f2f2;}.cls-3{fill:#62afee;}.cls-4{fill:#fff;}.cls-5{fill:none;stroke:#62afee;stroke-linecap:round;stroke-linejoin:round;stroke-width:3px;}</style></defs><path class="cls-1" d="M531.37,489.72a60.33,60.33,0,1,1-60.32,60.33,60.39,60.39,0,0,1,60.32-60.33m0-3a63.33,63.33,0,1,0,63.33,63.33,63.32,63.32,0,0,0-63.33-63.33Z"/><path class="cls-1" d="M538.69,558.29h-17c-1.3,5.26-2.5,10.62-3.79,15.89H507.38c4.9-19,9.88-38.24,15.61-57.36h14.69c5.63,19.12,10.71,38,15.6,57l-10.71.73C541.28,569.19,540,563.74,538.69,558.29Zm-15.15-7.76h13.3c-2-8.4-4.15-16.81-6.28-25h-.74C527.7,533.81,525.58,542.13,523.54,550.53Z"/><path class="cls-2" d="M540.84,219.56l-11.64,9.36v.44l11.68,9.36-2.52,3.2L525.2,231v-3.72l13.24-10.88Z"/><path class="cls-1" d="M549.88,225.36c.08,3.72.12,9,.12,15.6h-4.12c0-9,0-15.24-.16-19.76l3.8-.24.16,1.72a5.7,5.7,0,0,1,4.12-2.16,2.76,2.76,0,0,1,2.88,2.16,5.74,5.74,0,0,1,4.24-2.16c2.28,0,3.4,1.6,3.4,4.56V241H560.2V226.64c0-1.72-.48-2.32-1.52-2.32a2.74,2.74,0,0,0-2,.92V241h-3.16V226.6c0-1.68-.44-2.28-1.44-2.28A3.31,3.31,0,0,0,549.88,225.36Z"/><path class="cls-1" d="M568.48,244c4.72-.68,6-1.12,7.12-3.8l-.76-.28c-1.88-4.2-6-14.8-7.52-18.76l4.52-.32c1.64,4.4,3.76,10.4,5.6,14.8h.4c1.24-3.84,4-13.32,4.48-14.64h4.28c-1.44,4.52-3.4,10.52-5.6,16.44-2.88,8-5,9.92-12.16,10.56Z"/><path class="cls-1" d="M605.2,231H592.72v-3.8h12.8Z"/><path class="cls-1" d="M628.48,220.76l.28,4.2c-10-.32-11.48,2-11.48,5.8,0,5.12,2.8,7.2,11.76,6.68l-.44,3.68c-12.44,1-15.72-3.64-15.72-9.8C612.88,225.76,616.56,220.8,628.48,220.76Z"/><path class="cls-1" d="M633.92,231.48c0-6.48,4.44-11,9.72-11,5,0,8.44,3.64,8.44,10.12,0,6.64-4.4,11-9.72,11C637.44,241.56,633.92,237.92,633.92,231.48Zm13.68-.12c0-4.8-1.84-7.28-4.72-7.28-2.68,0-4.44,2.2-4.44,6.56,0,4.84,1.84,7.32,4.72,7.32C645.84,238,647.6,235.76,647.6,231.36Z"/><path class="cls-1" d="M668.88,238.8a9.42,9.42,0,0,1-6.36,2.68c-3.48,0-5.68-2-5.68-6.88V221.2l4.44-.28V233c0,3.52,1.28,4.64,3.32,4.64a6.89,6.89,0,0,0,4-1.36c-.08-3.68-.12-8.84-.12-15.28h4.44c0,9,.08,15.24.32,19.8l-4.12.2Z"/><path class="cls-1" d="M683.4,225.64c.08,3.72.16,8.92.16,15.32h-4.48c0-9-.08-15.24-.32-19.76l4.12-.24.24,2.28a9.37,9.37,0,0,1,6.4-2.72c3.48,0,5.72,2,5.72,6.88V241H690.8V229c0-3.52-1.32-4.64-3.36-4.64A7.26,7.26,0,0,0,683.4,225.64Z"/><path class="cls-1" d="M704.64,234.32v-9.88h-4.08l.4-3.4h3.68v-5.36l4.4-.4V221h7.52v3.4H709v9.2c0,3.12,1.88,3.84,8,4l-.48,3.68C707.56,241.44,704.64,239.44,704.64,234.32Z"/><path class="cls-1" d="M722.28,231.36c0-6.12,4.48-10.84,9.72-10.84,5.6,0,8.28,4.4,7.56,11.32l-12.84.36c.48,4,3.48,5.32,12.28,5.52l-.44,3.72C725.68,241.56,722.28,237.84,722.28,231.36Zm4.4-1.8c2.12-.08,6.16-.2,8.64-.28-.12-3.16-1.36-5.12-4.12-5.12S726.88,225.84,726.68,229.56Z"/><path class="cls-1" d="M744.64,241V237.6h4.84c-.08-5.4-.12-9.56-.2-13.08l-4.72-.32.36-3.16h8.24c0,.2.28,2.44.36,3.44a13.09,13.09,0,0,1,8.4-4.2l.2,4.72a22.2,22.2,0,0,0-8.44,2c.08,3,.12,6.36.2,10.6h6l-.36,3.36Z"/><path class="cls-2" d="M767.2,238.8l11.72-9.44v-.44l-11.6-9.28,2.48-3.2,13.12,10.84V231L769.6,241.92Z"/><path class="cls-3" d="M363.88,356.68c-7.4-.64-9.68.24-9.68,1.64,0,2.68,10.68,3.84,10.68,8.84,0,3.44-3.68,6.52-15.16,6l.16-3.8c7.92.52,10.36-.4,10.36-2,0-2.84-10.64-3.56-10.64-8.56,0-3.44,3.68-6.72,14.12-6Z"/><path class="cls-3" d="M370.28,363.36c0-6.12,4.48-10.84,9.72-10.84,5.6,0,8.28,4.4,7.56,11.32l-12.84.36c.48,4,3.48,5.32,12.28,5.52l-.44,3.72C373.68,373.56,370.28,369.84,370.28,363.36Zm4.4-1.8c2.12-.08,6.16-.2,8.64-.28-.12-3.16-1.36-5.12-4.12-5.12S374.88,357.84,374.68,361.56Z"/><path class="cls-3" d="M396.64,366.32v-9.88h-4.08l.4-3.4h3.68v-5.36l4.4-.4V353h7.52v3.4H401v9.2c0,3.12,1.88,3.84,8,4l-.48,3.68C399.56,373.44,396.64,371.44,396.64,366.32Z"/><path class="cls-3" d="M431,373.12c-12.8,1-16.52-4.68-16.52-12.2,0-6.92,4.12-12.88,16.44-13.12l.24,4.4c-10.2-.2-11.92,2.72-11.92,8.12,0,6.52,2.68,9.36,12.16,8.88Z"/><path class="cls-3" d="M435.92,363.48c0-6.48,4.44-11,9.72-11,5,0,8.44,3.64,8.44,10.12,0,6.64-4.4,11-9.72,11C439.44,373.56,435.92,369.92,435.92,363.48Zm13.68-.12c0-4.8-1.84-7.28-4.72-7.28-2.68,0-4.44,2.2-4.44,6.56,0,4.84,1.84,7.32,4.72,7.32C447.84,370,449.6,367.76,449.6,363.36Z"/><path class="cls-3" d="M470.88,370.8a9.42,9.42,0,0,1-6.36,2.68c-3.48,0-5.68-2-5.68-6.88V353.2l4.44-.28V365c0,3.52,1.28,4.64,3.32,4.64a6.89,6.89,0,0,0,4-1.36c-.08-3.68-.12-8.84-.12-15.28h4.44c0,9,.08,15.24.32,19.8l-4.12.2Z"/><path class="cls-3" d="M485.4,357.64c.08,3.72.16,8.92.16,15.32h-4.48c0-9-.08-15.24-.32-19.76l4.12-.24.24,2.28a9.37,9.37,0,0,1,6.4-2.72c3.48,0,5.72,2,5.72,6.88V373H492.8V361c0-3.52-1.32-4.64-3.36-4.64A7.26,7.26,0,0,0,485.4,357.64Z"/><path class="cls-3" d="M506.64,366.32v-9.88h-4.08l.4-3.4h3.68v-5.36l4.4-.4V353h7.52v3.4H511v9.2c0,3.12,1.88,3.84,8,4l-.48,3.68C509.56,373.44,506.64,371.44,506.64,366.32Z"/><path class="cls-2" d="M541,346.44c-7.92,6.4-10.48,11.16-10.48,16s2.68,9.8,10.36,16l-3.08,2.76c-8.4-7.2-11.68-12.92-11.68-18.6,0-5.84,3.36-11.68,11.88-18.92Z"/><path class="cls-2" d="M547.2,373l-.44-3.52c7.48-5.8,11.52-9.4,11.52-13.08,0-2.8-2.4-4.28-10.76-4.4l.36-4.12c11.44-.12,14.8,3.24,14.8,7.36,0,5-3.92,8.68-10.6,13.92h11.24V373Z"/><path class="cls-2" d="M569,378.56c7.92-6.36,10.48-11.16,10.48-16s-2.64-9.8-10.36-16l3.08-2.76c8.4,7.2,11.72,12.92,11.72,18.6S580.6,374,572.08,381.28Z"/><path class="cls-2" d="M596,367.32l5.8-.28c1.8,4.56-.6,9.64-4.08,12.8l-2.36-.72C597.6,376.24,598,371.52,596,367.32Zm.2-7.2.08-5.6h6.12l-.08,5.6Z"/><path class="cls-4" d="M633.77,504.9c0-2.22,2.55-3.45,2.55-4.68,0-1-1.32-1.74-4.06-2l.08-2.18c3.22-.34,4.18-.82,4.18-1.57,0-1.15-2.78-2.33-2.8-4.45s2.24-4.06,8.82-6.14l1,2.52c-4.68,1.29-6.81,2.27-6.81,3.39s2.58,2.63,2.58,4.2c0,1-.87,2.21-3.17,2.91,2.3.62,3.17,1.74,3.17,2.83,0,1.77-2.41,2.91-2.41,4.4s2.1,2.41,6.58,3.75l-1,2.49C635.9,508.31,633.77,507,633.77,504.9Z"/><path class="cls-3" d="M667.93,532l-1.65.05v6h-3.11V518.42l3.11-.28v11.7l1.65,0a53.29,53.29,0,0,0,3.89-5.8l3.2.25c-1.38,2.16-2.86,4.34-4.46,6.41l4.85,7.17-3.33.39Z"/><path class="cls-3" d="M677.7,531.33c0-4.29,3.14-7.59,6.81-7.59,3.92,0,5.79,3.08,5.29,7.92l-9,.26c.34,2.8,2.44,3.72,8.6,3.86l-.31,2.6C680.08,538.47,677.7,535.86,677.7,531.33Zm3.08-1.26c1.49-.06,4.31-.14,6.05-.2-.08-2.21-1-3.58-2.88-3.58S680.92,527.46,680.78,530.07Z"/><path class="cls-3" d="M693.24,540.2c3.31-.47,4.17-.78,5-2.66l-.54-.19c-1.31-2.94-4.2-10.36-5.26-13.13l3.16-.23c1.15,3.08,2.64,7.28,3.92,10.36h.28c.87-2.69,2.78-9.32,3.14-10.25h3c-1,3.17-2.38,7.37-3.92,11.51-2,5.63-3.5,6.95-8.52,7.39Z"/><path class="cls-4" d="M712.34,538.05l.14-3.92h4.28l-.14,3.92Zm.25-9,.06-3.92h4.25l0,3.92Z"/><path class="cls-4" d="M747.64,527.49l-4,.23c-1.29-3.17.31-6.81,2.77-9l1.65.48A8.11,8.11,0,0,0,747.64,527.49Z"/><path class="cls-4" d="M766,523.91l.2,2.94c-7-.23-8,1.37-8,4.06,0,3.58,2,5,8.23,4.67l-.31,2.58c-8.7.73-11-2.55-11-6.86C755.12,527.41,757.7,523.94,766,523.91Z"/><path class="cls-4" d="M769.85,531.41c0-4.53,3.11-7.73,6.8-7.73,3.5,0,5.91,2.55,5.91,7.09s-3.08,7.7-6.81,7.7C772.31,538.47,769.85,535.92,769.85,531.41Zm9.57-.08c0-3.36-1.29-5.1-3.3-5.1s-3.11,1.54-3.11,4.59c0,3.39,1.29,5.13,3.31,5.13C778.19,536,779.42,534.41,779.42,531.33Z"/><path class="cls-4" d="M794.32,536.54a6.59,6.59,0,0,1-4.45,1.87c-2.44,0-4-1.4-4-4.81v-9.38L789,524v8.48c0,2.47.89,3.25,2.32,3.25a4.79,4.79,0,0,0,2.8-1c0-2.58-.08-6.19-.08-10.7h3.11c0,6.28.05,10.67.22,13.86l-2.88.14Z"/><path class="cls-4" d="M804.48,527.32c.06,2.61.11,6.25.11,10.73h-3.13c0-6.27-.06-10.67-.23-13.83l2.89-.17.17,1.59a6.58,6.58,0,0,1,4.48-1.9c2.43,0,4,1.43,4,4.82v9.49h-3.11v-8.4c0-2.47-.92-3.25-2.35-3.25A5.1,5.1,0,0,0,804.48,527.32Z"/><path class="cls-4" d="M819.35,533.4v-6.92h-2.86l.28-2.38h2.58v-3.75l3.08-.28v4h5.26v2.38h-5.26v6.44c0,2.19,1.32,2.69,5.57,2.78l-.33,2.57C821.39,538.38,819.35,537,819.35,533.4Z"/><path class="cls-4" d="M835.92,519.32l4-.23c1.29,3.17-.31,6.81-2.74,9l-1.68-.51C837,525.59,837.33,522.28,835.92,519.32Z"/><path class="cls-4" d="M850.93,534.07l4-.19c1.26,3.13-.37,6.77-2.8,9l-1.66-.47A8.08,8.08,0,0,0,850.93,534.07Z"/><path class="cls-3" d="M671,570.33a5.46,5.46,0,0,1-3.84,1.68c-2.93,0-5.09-2.43-5.09-6.58a7.67,7.67,0,0,1,8-8.09,4.57,4.57,0,0,1,.64,0V552l3.11-.28v5.94c0,6.52,0,10.8.19,13.88l-2.88.17Zm-.17-1.73c-.05-2.16-.08-4.88-.08-8.24a6.77,6.77,0,0,0-2-.36c-2.13,0-3.61,1.57-3.61,4.65,0,3.3,1.37,4.81,3.3,4.81A3.75,3.75,0,0,0,670.84,568.6Z"/><path class="cls-3" d="M677.7,564.93c0-4.29,3.14-7.59,6.81-7.59,3.92,0,5.79,3.08,5.29,7.92l-9,.26c.34,2.8,2.44,3.72,8.6,3.86l-.31,2.6C680.08,572.07,677.7,569.46,677.7,564.93Zm3.08-1.26c1.49-.06,4.31-.14,6.05-.2-.08-2.21-1-3.58-2.88-3.58S680.92,561.06,680.78,563.67Z"/><path class="cls-3" d="M704.41,571.65H693.63v-2.33h3.53v-8.65h-3.69l.28-2.38h3.41v0c0-3.58,2-6.27,8.54-6.6l.2,3c-5.1.17-5.63.62-5.63,3.11v.5H705v2.38h-4.7v8.65h4.42Z"/><path class="cls-3" d="M717.32,570.05a6.39,6.39,0,0,1-4.56,2c-2.49,0-4.2-1.37-4.2-3.64,0-2.8,2.63-5,8.51-4.79-.17-2.68-1.71-3.33-7.7-3.52l.31-2.64c8.4.14,10.5,1.88,10.5,7.31,0,2.72.11,4.93.25,6.86l-2.86.14C717.55,571.62,717.41,570.72,717.32,570.05Zm-.14-1.54c-.06-.81-.06-1.73-.08-2.88-4.31-.45-5.46.47-5.46,2,0,1.24.92,2,2.35,2A5.86,5.86,0,0,0,717.18,568.51Z"/><path class="cls-3" d="M732.72,570.14a6.59,6.59,0,0,1-4.45,1.87c-2.44,0-4-1.4-4-4.81v-9.38l3.11-.2v8.48c0,2.47.9,3.25,2.32,3.25a4.79,4.79,0,0,0,2.8-1c0-2.58-.08-6.19-.08-10.7h3.11c0,6.28.05,10.67.22,13.86l-2.88.14Z"/><path class="cls-3" d="M739.64,571.65V569.3H744V554.51l-4.17-.22.28-2.21h7V569.3h4.32l-.26,2.35Z"/><path class="cls-3" d="M757.75,567v-6.92H754.9l.28-2.38h2.57V554l3.08-.28v4h5.27v2.38h-5.27v6.44c0,2.19,1.32,2.69,5.57,2.78l-.33,2.57C759.8,572,757.75,570.58,757.75,567Z"/><path class="cls-4" d="M773.94,571.65l.14-3.92h4.28l-.14,3.92Zm.25-9,0-3.92h4.26l-.06,3.92Z"/><path class="cls-4" d="M800.67,563.25c0-5.6,2.52-9.33,6.56-9.33s6.1,3.31,6.1,8.77-2.49,9.32-6.52,9.32S800.67,568.71,800.67,563.25Zm3,.28,6.44-3.33c-.45-2.36-1.46-3.76-3.11-3.76-2.27,0-3.36,2.27-3.36,6.25A7.58,7.58,0,0,0,803.67,563.53Zm6.69-.28v-.73l-6.44,3.33c.45,2.3,1.49,3.64,3.11,3.64C809.3,569.49,810.36,567.22,810.36,563.25Z"/><path class="cls-4" d="M631.76,608.64c4.67-1.29,6.77-2.27,6.77-3.36,0-1.29-2.55-2.64-2.55-4.23,0-1,.87-2.19,3.2-2.91-2.33-.62-3.2-1.71-3.2-2.8,0-1.77,2.41-2.92,2.41-4.4s-2.1-2.44-6.58-3.78l1-2.46c6.52,2.07,8.65,3.36,8.65,5.48s-2.55,3.45-2.55,4.71c0,1,1.29,1.71,4.06,1.93L642.9,599c-3.19.31-4.14.81-4.14,1.57,0,1.15,2.77,2.3,2.77,4.42s-2.21,4.06-8.79,6.16Z"/><path class="cls-5" d="M500.28,230.68S454,248.5,454,315.5"/><path class="cls-5" d="M454,398.44S448.5,451,472.5,495"/><path class="cls-5" d="M880.57,521.66S909.12,373.91,804.31,241"/><polyline class="cls-5" points="435.06 302.58 454.11 318.85 474.25 301.31"/><polyline class="cls-5" points="449.58 489.88 473.12 498.41 485.83 474.92"/><polyline class="cls-5" points="827.47 238.98 802.43 238.57 798.07 264.92"/><path class="cls-3" d="M893.2,375l-.44-3.52c7.48-5.8,11.52-9.4,11.52-13.08,0-2.8-2.4-4.28-10.76-4.4l.36-4.12c11.44-.12,14.8,3.24,14.8,7.36,0,5-3.92,8.68-10.6,13.92h11.24V375Z"/></svg>